<svg xmlns="http://www.w3.org/2000/svg" xmlns:xlink="http://www.w3.org/1999/xlink" viewBox="0 0 1920 1080" width="1920" height="1080" preserveAspectRatio="xMidYMid meet" style="width: 100%; height: 100%; transform: translate3d(0px, 0px, 0px); content-visibility: visible;"><defs><clipPath id="__lottie_element_1675"><rect width="1920" height="1080" x="0" y="0"></rect></clipPath></defs><g clip-path="url(#__lottie_element_1675)"><g style="display: block;" transform="matrix(0.9971702098846436,-0.07517751306295395,0.07517751306295395,0.9971702098846436,1294.8035888671875,418.9193420410156)" opacity="5.682270369788966e-9"><g opacity="1" transform="matrix(1,0,0,1,135.48399353027344,84)"><path fill="rgb(244,228,213)" fill-opacity="1" d=" M88.16899871826172,41.21099853515625 C54.14099884033203,56.03200149536133 13.038999557495117,60.71200180053711 -23.854000091552734,67.16100311279297 C-44.08399963378906,70.64600372314453 -64.37200164794922,73.86900329589844 -84.71900177001953,76.7300033569336 C-93.95700073242188,78.08100128173828 -103.25299835205078,79.27799987792969 -112.54900360107422,80.4739990234375 C-118.22000122070312,81.2020034790039 -127.16699981689453,83.75 -132.89599609375,81.87799835205078 C-134.1840057373047,81.46199798583984 -135.23399353027344,80.4729995727539 -135.23399353027344,79.17400360107422 C-135.23399353027344,78.80999755859375 -135.23500061035156,78.49700164794922 -135.177001953125,78.13400268554688 C-135.11900329589844,75.11699676513672 -38.00199890136719,57.308998107910156 -7.834000110626221,28.367000579833984 C7.49399995803833,13.661999702453613 22.04199981689453,-11.309000015258789 10.406999588012695,-31.226999282836914 C3.4489998817443848,-43.08300018310547 -12.562000274658203,-46.03300094604492 -26.250999450683594,-43.65599822998047 C-40.560001373291016,-41.16999816894531 -56.63999938964844,-28.006999969482422 -43.96799850463867,-21.29400062561035 C-42.50600051879883,-23.270000457763672 -38.29600143432617,-22.075000762939453 -39.40599822998047,-19.57900047302246 C-42.6619987487793,-13.625 -58.525001525878906,-8.086999893188477 -65.5999984741211,-16.770999908447266 C-76.94200134277344,-30.60300064086914 -63.85900115966797,-52.22100067138672 -51.52199935913086,-60.020999908447266 C-19.014999389648438,-80.56199645996094 44.084999084472656,-83.7490005493164 63.37900161743164,-44.74700164794922 C77.41100311279297,-52.599998474121094 94.5989990234375,-47.55699920654297 99.8030014038086,-33.56800079345703 C113.19100189208984,-42.82400131225586 130.26600646972656,-29.927000045776367 132.0780029296875,-15.574000358581543 C135.23500061035156,9.803000450134277 111.8489990234375,30.966999053955078 88.16899871826172,41.21099853515625z"></path></g></g><g transform="matrix(0.9971702098846436,-0.07517751306295395,0.07517751306295395,0.9971702098846436,875.876220703125,558.4310302734375)" opacity="1" style="display: block;"><g opacity="1" transform="matrix(1,0,0,1,173.63099670410156,127.70800018310547)"><path fill="rgb(255,174,160)" fill-opacity="1" d=" M-113.6729965209961,-55.71699905395508 C-112.46800231933594,-54.85599899291992 -107.52999877929688,-54.970001220703125 -100.06700134277344,-55.659000396728516 C-57.698001861572266,-59.792999267578125 67.68800354003906,-85.11199951171875 80.31800079345703,-86.83300018310547 C100.64199829101562,-89.7040023803711 127.16500091552734,-84.30799865722656 148.00599670410156,-82.52899932861328 C168.78799438476562,-80.69100189208984 173.38099670410156,-43.54499816894531 168.10000610351562,-38.034000396728516 C158.05299377441406,-27.47100067138672 122.05599975585938,-11.854999542236328 110.68900299072266,-13.635000228881836 C99.32099914550781,-15.300000190734863 80.31800079345703,-14.668000221252441 77.96399688720703,-15.472000122070312 C75.26599884033203,-15.472000122070312 -41.96699905395508,55.948001861572266 -118.61000061035156,79.65799713134766 C-142.1490020751953,86.9489974975586 -162.01300048828125,89.70500183105469 -173.38099670410156,84.4800033569336"></path></g><g opacity="1" transform="matrix(1,0,0,1,238.9499969482422,94.38099670410156)"><path fill="rgb(220,144,104)" fill-opacity="1" d=" M125.00299835205078,-14.968000411987305 C125.00299835205078,-14.968000411987305 -118.10900115966797,37.07600021362305 -118.10900115966797,37.07600021362305 C-118.10900115966797,37.07600021362305 -125.00299835205078,6.170000076293945 -125.00299835205078,6.170000076293945 C-125.00299835205078,6.170000076293945 120.07099914550781,-37.07600021362305 120.07099914550781,-37.07600021362305 C120.07099914550781,-37.07600021362305 125.00299835205078,-14.968000411987305 125.00299835205078,-14.968000411987305z"></path></g><g opacity="1" transform="matrix(1,0,0,1,508.79901123046875,60.77299880981445)"><path fill="rgb(167,185,161)" fill-opacity="1" d=" M173.552001953125,-60.52299880981445 C173.552001953125,-60.52299880981445 174.72799682617188,3.5160000324249268 149.25900268554688,8.01099967956543 C123.79100036621094,12.505000114440918 13.199999809265137,32.02000045776367 13.199999809265137,32.02000045776367 C13.199999809265137,32.02000045776367 -97.39299774169922,51.5359992980957 -122.86199951171875,56.029998779296875 C-148.33099365234375,60.52299880981445 -174.72799682617188,0.9350000023841858 -174.72799682617188,0.9350000023841858 C-174.72799682617188,0.9350000023841858 173.552001953125,-60.52299880981445 173.552001953125,-60.52299880981445z"></path></g><g opacity="1" transform="matrix(1,0,0,1,251.2550048828125,68.37999725341797)"><path fill="rgb(255,174,160)" fill-opacity="1" d=" M-24.219999313354492,-18.076000213623047 C-18.000999450683594,-20.4689998626709 6.841000080108643,-21.389999389648438 14.173999786376953,-17.201000213623047 C31.7549991607666,-7.1529998779296875 66.91899871826172,-6.795000076293945 73.01899719238281,-2.13100004196167 C79.11900329589844,2.5339999198913574 40.007999420166016,16.527999877929688 23.861000061035156,14.017000198364258 C7.715000152587891,11.505000114440918 -29.06599998474121,21.389999389648438 -54.09199905395508,8.911999702453613 C-79.11900329589844,-3.565000057220459 -24.219999313354492,-18.076000213623047 -24.219999313354492,-18.076000213623047z"></path></g><g opacity="1" transform="matrix(1,0,0,1,268.96099853515625,107.74099731445312)"><path fill="rgb(255,174,160)" fill-opacity="1" d=" M20.867000579833984,8.435999870300293 C10.041000366210938,7.60099983215332 -21.422000885009766,4.809000015258789 -26.076000213623047,2.2850000858306885 C-30.729999542236328,-0.2409999966621399 -25.75,-5.250999927520752 -20.86400032043457,-7.045000076293945 C-15.977999687194824,-8.838000297546387 15.942999839782715,-9.197999954223633 22.132999420166016,-7.045000076293945 C28.320999145507812,-4.892000198364258 30.729999542236328,9.197999954223633 20.867000579833984,8.435999870300293z"></path></g><g opacity="1" transform="matrix(1,0,0,1,284.3659973144531,97.73600006103516)"><path fill="rgb(255,174,160)" fill-opacity="1" d=" M24.32699966430664,11.01099967956543 C11.53600025177002,8.442000389099121 -25.586999893188477,0.5830000042915344 -30.781999588012695,-2.865000009536743 C-35.979000091552734,-6.313000202178955 -29.341999053955078,-10.970000267028809 -23.267000198364258,-12.16100025177002 C-17.191999435424805,-13.35099983215332 20.91699981689453,-8.831000328063965 27.9950008392334,-5.551000118255615 C35.07400131225586,-2.2679998874664307 35.979000091552734,13.35099983215332 24.32699966430664,11.01099967956543z"></path></g></g><g transform="matrix(0.9950948357582092,-0.09892535954713821,0.09892535954713821,0.9950948357582092,645.2637939453125,373.3704528808594)" opacity="1" style="display: block;"><g opacity="1" transform="matrix(1,0,0,1,137.05999755859375,211.80999755859375)"><path fill="rgb(42,143,131)" fill-opacity="1" d=" M136.7530059814453,61.08399963378906 C136.63800048828125,63.0369987487793 134.51400756835938,66.76899719238281 130.83900451660156,72.45099639892578 C129.5760040283203,74.40399932861328 128.19900512695312,76.58599853515625 126.53299713134766,78.99800109863281 C126.47599792480469,79.11199951171875 126.36100006103516,79.28299713134766 126.24700164794922,79.45600128173828 C124.29499816894531,82.44100189208984 122.05599975585938,85.77100372314453 119.64399719238281,89.50299835205078 C118.49600219726562,91.33999633789062 117.23300170898438,93.23500061035156 115.97000122070312,95.18800354003906 C115.6259994506836,95.7040023803711 115.33799743652344,96.22000122070312 114.99400329589844,96.73600006103516 C111.89399719238281,101.61699676513672 108.56400299072266,107.01499938964844 105.00399780273438,112.9280014038086 C104.48799896240234,113.78800201416016 103.97100067138672,114.64900207519531 103.45500183105469,115.56700134277344 C102.93800354003906,116.42900085449219 102.4209976196289,117.29000091552734 101.90399932861328,118.1500015258789 C101.67400360107422,118.5530014038086 101.38800048828125,119.01200103759766 101.15799713134766,119.47200012207031 C98.2300033569336,124.52300262451172 95.18699645996094,129.92100524902344 92.02899932861328,135.66200256347656 C91.74199676513672,136.1790008544922 91.51300048828125,136.69500732421875 91.22599792480469,137.21200561523438 C89.44599914550781,140.54200744628906 87.60900115966797,143.98500061035156 85.77200317382812,147.5449981689453 C84.7959976196289,149.43899536132812 83.76300048828125,151.39300537109375 82.78700256347656,153.40199279785156 C81.69499969482422,155.5260009765625 80.6050033569336,157.70700073242188 79.51399993896484,159.9459991455078 C79.39900207519531,160.17599487304688 79.28399658203125,160.46299743652344 79.16999816894531,160.69200134277344 C76.75800323486328,165.6300048828125 74.34700012207031,170.7969970703125 71.87799835205078,176.13699340820312 C71.64900207519531,176.65199279785156 71.41999816894531,177.1699981689453 71.19000244140625,177.68699645996094 C68.83599853515625,182.91000366210938 66.42500305175781,188.3070068359375 64.12799835205078,193.87600708007812 C63.72600173950195,194.73699951171875 63.32400131225586,195.65499877929688 62.97999954223633,196.57400512695312 C62.4630012512207,197.77999877929688 61.94599914550781,199.04299926757812 61.43000030517578,200.30599975585938 C61.43000030517578,200.30599975585938 61.37300109863281,200.36300659179688 61.37300109863281,200.42100524902344 C59.994998931884766,203.75 58.67399978637695,207.13800048828125 57.29600143432617,210.58299255371094 C56.89400100708008,211.5590057373047 52.1870002746582,209.6060028076172 45.297000885009766,205.30099487304688 C43.22999954223633,204.03799438476562 41.04800033569336,202.54600524902344 38.69499969482422,200.88099670410156 C38.46500015258789,200.70899963378906 38.292999267578125,200.59300231933594 38.06399917602539,200.42100524902344 C35.3650016784668,198.468994140625 32.4370002746582,196.28700256347656 29.509000778198242,193.87600708007812 C27.21299934387207,191.9810028076172 24.858999252319336,189.9149932861328 22.5049991607666,187.73300170898438 C21.98900032043457,187.33099365234375 21.47100067138672,186.81399536132812 20.954999923706055,186.35499572753906 C18.084999084472656,183.65699768066406 15.213000297546387,180.72999572753906 12.399999618530273,177.68699645996094 C11.942000389099121,177.1699981689453 11.482000350952148,176.65199279785156 11.02299976348877,176.13699340820312 C8.89900016784668,173.78199768066406 6.77400016784668,171.25599670410156 4.822000026702881,168.67300415039062 C3.1579999923706055,166.49099731445312 1.5499999523162842,164.2519989013672 0,161.9550018310547 C-0.45899999141693115,161.26699829101562 -0.8610000014305115,160.63499450683594 -1.3200000524520874,159.9459991455078 C-1.4930000305175781,159.7169952392578 -1.6080000400543213,159.48699951171875 -1.7799999713897705,159.2570037841797 C-3.0429999828338623,157.36199951171875 -4.306000232696533,155.41099548339844 -5.625999927520752,153.40199279785156 C-8.956000328063965,148.29299926757812 -12.401000022888184,142.89700317382812 -15.961000442504883,137.21200561523438 C-16.30500030517578,136.69500732421875 -16.591999053955078,136.1790008544922 -16.93600082397461,135.66200256347656 C-17.2810001373291,135.08799743652344 -17.625,134.57000732421875 -17.969999313354492,133.99600219726562 C-18.486000061035156,133.19200134277344 -19.003000259399414,132.38900756835938 -19.518999099731445,131.52699279785156 C-21.930999755859375,127.6240005493164 -24.399999618530273,123.6050033569336 -26.924999237060547,119.47200012207031 C-28.246000289916992,117.29000091552734 -29.566999435424805,115.10900115966797 -30.886999130249023,112.9280014038086 C-32.4370002746582,110.28700256347656 -34.04399871826172,107.6449966430664 -35.652000427246094,104.94599914550781 C-37.2599983215332,102.24800109863281 -38.867000579833984,99.49199676513672 -40.474998474121094,96.73600006103516 C-40.762001037597656,96.22000122070312 -41.10599899291992,95.7040023803711 -41.393001556396484,95.18800354003906 C-41.68000030517578,94.6709976196289 -41.96799850463867,94.20999908447266 -42.25400161743164,93.69300079345703 C-45.06800079345703,88.87100219726562 -47.88100051879883,83.99199676513672 -50.694000244140625,78.99800109863281 C-51.957000732421875,76.81600189208984 -53.1619987487793,74.63400268554688 -54.42499923706055,72.45099639892578 C-55.74599838256836,70.04100036621094 -57.066001892089844,67.62999725341797 -58.444000244140625,65.21900177001953 C-58.96099853515625,64.29900360107422 -59.47700119018555,63.323001861572266 -59.994998931884766,62.404998779296875 C-61.084999084472656,60.395999908447266 -62.23400115966797,58.32899856567383 -63.32400131225586,56.262001037597656 C-63.61199951171875,55.744998931884766 -63.89799880981445,55.229000091552734 -64.18499755859375,54.71200180053711 C-67.11299896240234,49.37200164794922 -70.04100036621094,43.97800064086914 -72.7969970703125,38.52299880981445 C-73.94499969482422,36.45600128173828 -75.03600311279297,34.33100128173828 -76.12699890136719,32.263999938964844 C-76.18399810791016,32.14899826049805 -76.24199676513672,32.09299850463867 -76.29900360107422,31.979000091552734 C-78.4800033569336,27.78700065612793 -80.6050033569336,23.59600067138672 -82.72899627685547,19.40399932861328 C-83.36100006103516,18.198999404907227 -83.93399810791016,16.993000030517578 -84.50900268554688,15.786999702453613 C-84.7959976196289,15.270999908447266 -85.0260009765625,14.755000114440918 -85.31199645996094,14.23799991607666 C-88.01100158691406,8.842000007629395 -90.6520004272461,3.388000011444092 -93.23500061035156,-1.9520000219345093 C-94.26799774169922,-4.133999824523926 -95.302001953125,-6.315999984741211 -96.27799987792969,-8.496999740600586 C-97.19599914550781,-10.392999649047852 -98.05799865722656,-12.227999687194824 -98.91899871826172,-14.123000144958496 C-99.43599700927734,-15.270000457763672 -99.9530029296875,-16.41900062561035 -100.46900177001953,-17.510000228881836 C-101.55899810791016,-19.922000885009766 -102.6510009765625,-22.333999633789062 -103.68399810791016,-24.687000274658203 C-103.91400146484375,-25.20400047302246 -104.14299774169922,-25.719999313354492 -104.31500244140625,-26.236000061035156 C-106.72699737548828,-31.690000534057617 -109.02300262451172,-37.14400100708008 -111.20500183105469,-42.42599868774414 C-112.1240005493164,-44.608001708984375 -112.98400115966797,-46.790000915527344 -113.78900146484375,-48.97100067138672 C-114.8219985961914,-51.439998626708984 -115.74099731445312,-53.90800094604492 -116.65899658203125,-56.31999969482422 C-117.75,-59.30500030517578 -118.83999633789062,-62.290000915527344 -119.8740005493164,-65.16200256347656 C-120.0459976196289,-65.6780014038086 -120.21800231933594,-66.19499969482422 -120.39099884033203,-66.71099853515625 C-121.42400360107422,-69.58200073242188 -122.34300231933594,-72.3949966430664 -123.2040023803711,-75.1500015258789 C-123.5479965209961,-76.06900024414062 -123.77799987792969,-76.93000030517578 -124.06500244140625,-77.79199981689453 C-124.58100128173828,-79.39900207519531 -125.0989990234375,-81.12200164794922 -125.55799865722656,-82.9010009765625 C-126.18900299072266,-84.96800231933594 -126.76300048828125,-87.1500015258789 -127.33699798583984,-89.4469985961914 C-128.6009979248047,-94.4990005493164 -129.86399841308594,-99.9520034790039 -130.95399475097656,-105.63600158691406 C-131.06900024414062,-106.1520004272461 -131.1840057373047,-106.66999816894531 -131.24200439453125,-107.18699645996094 C-132.27499389648438,-112.41200256347656 -133.13600158691406,-117.86499786376953 -133.8820037841797,-123.37699890136719 C-134.2259979248047,-125.55899810791016 -134.51400756835938,-127.7959976196289 -134.74400329589844,-129.9770050048828 C-135.4320068359375,-135.37399291992188 -135.94900512695312,-140.77200317382812 -136.23599243164062,-146.11099243164062 C-136.29299926757812,-146.6280059814453 -136.3509979248047,-147.1439971923828 -136.3509979248047,-147.66099548339844 C-136.69500732421875,-153.22900390625 -136.80999755859375,-158.6269989013672 -136.69500732421875,-163.8509979248047 C-136.69500732421875,-166.09100341796875 -136.58099365234375,-168.32899475097656 -136.46600341796875,-170.4530029296875 C-136.1790008544922,-176.19400024414062 -135.5469970703125,-181.64700317382812 -134.51400756835938,-186.5850067138672 C-134.45599365234375,-187.1020050048828 -134.3419952392578,-187.61900329589844 -134.16900634765625,-188.13499450683594 C-132.79100036621094,-194.56500244140625 -130.78199768066406,-200.07699584960938 -127.96900177001953,-204.3249969482422 C-126.87799835205078,-205.99000549316406 -125.7300033569336,-207.427001953125 -124.40899658203125,-208.68899536132812 C-124.00800323486328,-209.03399658203125 -123.66300201416016,-209.3769989013672 -123.2040023803711,-209.60699462890625 C-122.45800018310547,-210.18099975585938 -121.53900146484375,-210.64100646972656 -120.62000274658203,-210.927001953125 C-119.41400146484375,-211.32899475097656 -118.09400177001953,-211.5590057373047 -116.65899658203125,-211.5590057373047 C-114.99400329589844,-211.5590057373047 -113.21399688720703,-211.32899475097656 -111.31999969482422,-210.927001953125 C-108.0469970703125,-210.18099975585938 -104.37300109863281,-208.80299377441406 -100.46900177001953,-206.9080047607422 C-99.9530029296875,-206.6219940185547 -99.43599700927734,-206.39300537109375 -98.91899871826172,-206.1060028076172 C-97.88600158691406,-205.58900451660156 -96.73799896240234,-204.95700073242188 -95.64600372314453,-204.3249969482422 C-91.56999969482422,-202.0290069580078 -87.20700073242188,-199.2729949951172 -82.72899627685547,-196.11700439453125 C-80.5479965209961,-194.5659942626953 -78.36599731445312,-192.95899963378906 -76.12699890136719,-191.23599243164062 C-74.80599975585938,-190.25999450683594 -73.48600006103516,-189.2259979248047 -72.10800170898438,-188.13499450683594 C-71.47599792480469,-187.61900329589844 -70.84500122070312,-187.1020050048828 -70.15599822998047,-186.5850067138672 C-66.76799774169922,-183.88699340820312 -63.38199996948242,-181.07400512695312 -59.994998931884766,-178.08799743652344 C-59.47700119018555,-177.62899780273438 -58.96099853515625,-177.2270050048828 -58.444000244140625,-176.76800537109375 C-56.09000015258789,-174.70199584960938 -53.736000061035156,-172.57699584960938 -51.382999420166016,-170.4530029296875 C-48.97200012207031,-168.27099609375 -46.61800003051758,-166.09100341796875 -44.263999938964844,-163.8509979248047 C-43.57500076293945,-163.22000122070312 -42.94300079345703,-162.58700561523438 -42.25400161743164,-161.95599365234375 C-40.01599884033203,-159.7740020751953 -37.83399963378906,-157.64999389648438 -35.652000427246094,-155.468994140625 C-33.01100158691406,-152.88499450683594 -30.42799949645996,-150.24400329589844 -27.900999069213867,-147.66099548339844 C-27.385000228881836,-147.1439971923828 -26.868000030517578,-146.6280059814453 -26.40999984741211,-146.11099243164062 C-24.05500030517578,-143.64300537109375 -21.759000778198242,-141.1739959716797 -19.518999099731445,-138.82000732421875 C-19.003000259399414,-138.24600219726562 -18.486000061035156,-137.67100524902344 -17.969999313354492,-137.1540069580078 C-15.730999946594238,-134.68600463867188 -13.605999946594238,-132.27499389648438 -11.539999961853027,-129.9770050048828 C-10.793000221252441,-129.11700439453125 -10.04699993133545,-128.2570037841797 -9.300000190734863,-127.3949966430664 C-8.210000038146973,-126.13200378417969 -7.060999870300293,-124.81199645996094 -5.798999786376953,-123.37699890136719 C-4.535999774932861,-121.88400268554688 -3.2149999141693115,-120.2760009765625 -1.7799999713897705,-118.55400085449219 C0.28700000047683716,-116.14299774169922 2.4679999351501465,-113.55899810791016 4.822000026702881,-110.80400085449219 C5.797999858856201,-109.5979995727539 6.77400016784668,-108.44999694824219 7.808000087738037,-107.18699645996094 C8.210000038146973,-106.66999816894531 8.668999671936035,-106.1520004272461 9.128000259399414,-105.63600158691406 C12.802000045776367,-101.21499633789062 16.763999938964844,-96.39399719238281 20.954999923706055,-91.34100341796875 C21.47100067138672,-90.70999908447266 21.98900032043457,-90.0790023803711 22.5049991607666,-89.4469985961914 C24.28499984741211,-87.3219985961914 26.06399917602539,-85.13999938964844 27.900999069213867,-82.9010009765625 C31.402999877929688,-78.6520004272461 35.020999908447266,-74.23300170898438 38.69499969482422,-69.6969985961914 C39.499000549316406,-68.72100067138672 40.301998138427734,-67.68699645996094 41.106998443603516,-66.71099853515625 C41.564998626708984,-66.19499969482422 41.96699905395508,-65.6780014038086 42.369998931884766,-65.16200256347656 C43.345001220703125,-63.95600128173828 44.32099914550781,-62.75 45.297000885009766,-61.60200119018555 C48.62699890136719,-57.4109992980957 52.071998596191406,-53.220001220703125 55.45899963378906,-48.97100067138672 C57.237998962402344,-46.790000915527344 58.96099853515625,-44.608001708984375 60.74100112915039,-42.42599868774414 C60.97100067138672,-42.13999938964844 61.20000076293945,-41.85300064086914 61.43000030517578,-41.564998626708984 C61.94599914550781,-40.933998107910156 62.4630012512207,-40.244998931884766 62.97999954223633,-39.61399841308594 C66.53900146484375,-35.13600158691406 70.0979995727539,-30.714000701904297 73.60099792480469,-26.236000061035156 C74.05999755859375,-25.719999313354492 74.46199798583984,-25.20400047302246 74.86399841308594,-24.687000274658203 C76.29900360107422,-22.906999588012695 77.73400115966797,-21.06999969482422 79.16999816894531,-19.291000366210938 C81.35099792480469,-16.47800064086914 83.58999633789062,-13.663999557495117 85.77200317382812,-10.907999992370605 C86.40299987792969,-10.104000091552734 87.03500366210938,-9.300999641418457 87.66699981689453,-8.496999740600586 C89.33100128173828,-6.257999897003174 91.05400085449219,-4.074999809265137 92.71800231933594,-1.9520000219345093 C95.87699890136719,2.124000072479248 98.97599792480469,6.085999965667725 101.90399932861328,9.932999610900879 C102.4209976196289,10.621000289916992 102.93800354003906,11.309000015258789 103.45500183105469,11.998000144958496 C104.02899932861328,12.744999885559082 104.60299682617188,13.491999626159668 105.177001953125,14.23799991607666 C105.177001953125,14.23799991607666 106.38200378417969,15.786999702453613 106.38200378417969,15.786999702453613 C110.74500274658203,21.586000442504883 114.8219985961914,27.041000366210938 118.43900299072266,31.979000091552734 C118.84100341796875,32.551998138427734 119.24199676513672,33.125 119.64399719238281,33.643001556396484 C120.90699768066406,35.36399841308594 122.05599975585938,36.972999572753906 123.14700317382812,38.52299880981445 C124.23699951171875,40.073001861572266 125.27100372314453,41.507999420166016 126.24700164794922,42.94200134277344 C129.5189971923828,47.650001525878906 132.16000366210938,51.66899871826172 133.9969940185547,54.71200180053711 C134.28399658203125,55.2859992980957 134.5709991455078,55.803001403808594 134.85800170898438,56.262001037597656 C136.12100219726562,58.61600112915039 136.80999755859375,60.2239990234375 136.7530059814453,61.08399963378906z"></path></g><g opacity="1" transform="matrix(1,0,0,1,218.48800659179688,340.5369873046875)"><path fill="rgb(0,107,94)" fill-opacity="1" d=" M42.86000061035156,-96.9229965209961 C37.393001556396484,-95.28199768066406 -17.42099952697754,-35.20600128173828 -26.033000946044922,-20.375 C-34.64400100708008,-5.544000148773193 -66.3030014038086,56.49100112915039 -63.349998474121094,64.30699920654297 C-59.284000396728516,75.07099914550781 -37.64400100708008,80.10199737548828 -29.50200080871582,83.9219970703125 C-15.16100025177002,90.64800262451172 1.1430000066757202,99.79199981689453 12.718999862670898,91.57599639892578 C16.427000045776367,88.94499969482422 14.991999626159668,50.9109992980957 25.158000946044922,11.20199966430664 C29.160999298095703,-4.433000087738037 63.43199920654297,-61.50899887084961 64.86799621582031,-67.01599884033203 C66.3030014038086,-72.52300262451172 52.42900085449219,-99.79299926757812 42.86000061035156,-96.9229965209961z"></path></g></g><g transform="matrix(0.9996645450592041,-0.025898896157741547,0.025898896157741547,0.9996645450592041,372.51885986328125,275.520751953125)" opacity="1" style="display: block;"><g opacity="1" transform="matrix(1,0,0,1,227.71200561523438,407.3380126953125)"><path fill="rgb(42,143,131)" fill-opacity="1" d=" M227.46200561523438,149.21099853515625 C227.46200561523438,154.60699462890625 227.46200561523438,160.00399780273438 227.3470001220703,165.34300231933594 C227.40499877929688,165.85899353027344 227.40499877929688,166.37600708007812 227.3470001220703,166.8939971923828 C227.2899932861328,172.3470001220703 227.23199462890625,177.74400329589844 227.05999755859375,183.08299255371094 C227.0030059814453,185.32200622558594 226.94500732421875,187.50399780273438 226.88800048828125,189.68600463867188 C226.6580047607422,195.13999938964844 226.48599243164062,200.53599548339844 226.19900512695312,205.81700134277344 C226.19900512695312,206.3350067138672 226.14199829101562,206.8509979248047 226.14199829101562,207.3679962158203 C225.968994140625,210.64100646972656 225.7969970703125,213.91299438476562 225.625,217.07000732421875 C225.4530029296875,219.2519989013672 225.33700561523438,221.4340057373047 225.22300720214844,223.55799865722656 C225.05099487304688,225.74000549316406 224.87899780273438,227.97900390625 224.76400756835938,230.16000366210938 C224.3040008544922,235.72999572753906 223.90199279785156,241.125 223.38600158691406,246.29200744628906 C223.32899475097656,246.80999755859375 223.27099609375,247.3260040283203 223.27099609375,247.84300231933594 C222.69700622558594,253.5260009765625 222.1230010986328,258.9230041503906 221.49099731445312,264.0320129394531 C221.20399475097656,266.3290100097656 220.91799926757812,268.510009765625 220.6300048828125,270.635009765625 C220.11300659179688,274.3089904785156 219.5959930419922,277.7539978027344 219.0229949951172,281.0260009765625 C218.73599243164062,283.0350036621094 218.39100646972656,284.92999267578125 218.04600524902344,286.76800537109375 C217.9320068359375,287.28399658203125 217.875,287.8009948730469 217.75999450683594,288.3169860839844 C216.4969940185547,294.86199951171875 215.11900329589844,300.3160095214844 213.6840057373047,304.5069885253906 C212.70799255371094,307.32000732421875 211.7310028076172,309.50201416015625 210.7550048828125,311.1090087890625 C210.12399291992188,312.02801513671875 209.4929962158203,312.77398681640625 208.86099243164062,313.2340087890625 C208.86099243164062,313.2340087890625 -226.48599243164062,313.2340087890625 -226.48599243164062,313.2340087890625 C-226.88800048828125,312.8320007324219 -227.1750030517578,312.14300537109375 -227.2899932861328,311.1090087890625 C-227.46200561523438,309.61700439453125 -227.40499877929688,307.37701416015625 -227.05999755859375,304.5069885253906 C-226.88800048828125,302.89898681640625 -226.60000610351562,301.06298828125 -226.2570037841797,299.0530090332031 C-225.73899841308594,295.9530029296875 -224.99400329589844,292.33599853515625 -224.0749969482422,288.3169860839844 C-223.95899963378906,287.8009948730469 -223.8459930419922,287.28399658203125 -223.72999572753906,286.76800537109375 C-222.63999938964844,281.9440002441406 -221.31900024414062,276.489990234375 -219.7689971923828,270.635009765625 C-219.7689971923828,270.5199890136719 -219.71099853515625,270.3479919433594 -219.6540069580078,270.2330017089844 C-219.19500732421875,268.2239990234375 -218.62100219726562,266.1570129394531 -218.0469970703125,264.0320129394531 C-216.7259979248047,258.9230041503906 -215.23399353027344,253.5260009765625 -213.6840057373047,247.84300231933594 C-213.5679931640625,247.3260040283203 -213.39599609375,246.80999755859375 -213.2239990234375,246.29200744628906 C-211.8459930419922,241.125 -210.35299682617188,235.72999572753906 -208.74600219726562,230.16000366210938 C-208.1719970703125,227.97900390625 -207.5399932861328,225.7969970703125 -206.90899658203125,223.55799865722656 C-205.76100158691406,219.6540069580078 -204.6699981689453,215.63499450683594 -203.46499633789062,211.61599731445312 C-203.06199645996094,210.18099975585938 -202.66099548339844,208.8040008544922 -202.25900268554688,207.3679962158203 C-202.14300537109375,206.96600341796875 -202.0290069580078,206.56500244140625 -201.91400146484375,206.10499572753906 C-201.91400146484375,206.04800415039062 -201.85699462890625,205.93299865722656 -201.8000030517578,205.81700134277344 C-200.3070068359375,200.53599548339844 -198.81399536132812,195.19700622558594 -197.20700073242188,189.68600463867188 C-196.5749969482422,187.50399780273438 -195.94400024414062,185.26499938964844 -195.36900329589844,183.08299255371094 C-193.81900024414062,177.74400329589844 -192.2689971923828,172.3470001220703 -190.7760009765625,166.8939971923828 C-190.60400390625,166.37600708007812 -190.4320068359375,165.85899353027344 -190.31700134277344,165.34300231933594 C-188.76699829101562,160.00399780273438 -187.27499389648438,154.60699462890625 -185.7239990234375,149.21099853515625 C-185.7239990234375,149.21099853515625 -185.7239990234375,149.0959930419922 -185.7239990234375,149.0959930419922 C-185.09300231933594,146.91400146484375 -184.51800537109375,144.7899932861328 -183.88699340820312,142.60800170898438 C-182.3939971923828,137.21200561523438 -180.9010009765625,131.81500244140625 -179.41000366210938,126.41899871826172 C-179.3509979248047,126.13099670410156 -179.29400634765625,125.84500122070312 -179.17999267578125,125.55799865722656 C-179.12100219726562,125.3270034790039 -179.06500244140625,125.0979995727539 -179.00799560546875,124.86900329589844 C-177.51499938964844,119.47200012207031 -176.0800018310547,114.01799774169922 -174.6439971923828,108.67900085449219 C-174.07000732421875,106.49700164794922 -173.49600219726562,104.31500244140625 -172.9219970703125,102.13400268554688 C-171.48699951171875,96.68000030517578 -170.05099487304688,91.28299713134766 -168.7310028076172,85.94400024414062 C-168.55799865722656,85.4280014038086 -168.44400024414062,84.91000366210938 -168.32899475097656,84.3949966430664 C-166.9510040283203,78.88200378417969 -165.63099670410156,73.54299926757812 -164.3679962158203,68.2040023803711 C-163.8509979248047,66.30999755859375 -163.44900512695312,64.47200012207031 -162.99000549316406,62.57699966430664 C-162.9320068359375,62.290000915527344 -162.81700134277344,61.94599914550781 -162.75999450683594,61.659000396728516 C-162.3000030517578,59.76499938964844 -161.8979949951172,57.8129997253418 -161.44000244140625,55.97600173950195 C-160.63600158691406,52.41600036621094 -159.83200073242188,48.91400146484375 -159.0850067138672,45.46900177001953 C-159.0850067138672,45.46900177001953 -158.74099731445312,43.91899871826172 -158.74099731445312,43.91899871826172 C-157.53599548339844,38.35100173950195 -156.44500732421875,32.95399856567383 -155.468994140625,27.729999542236328 C-155.00999450683594,25.54800033569336 -154.60800170898438,23.365999221801758 -154.26300048828125,21.184999465942383 C-153.22999572753906,15.50100040435791 -152.36900329589844,10.104000091552734 -151.67999267578125,4.99399995803833 C-151.56500244140625,4.478000164031982 -151.5070037841797,3.9609999656677246 -151.4499969482422,3.444000005722046 C-151.04800415039062,0.4009999930858612 -150.70399475097656,-2.5840001106262207 -150.41600036621094,-5.395999908447266 C-150.18699645996094,-7.809000015258789 -149.95700073242188,-10.277000427246094 -149.6699981689453,-12.744999885559082 C-149.44000244140625,-14.869999885559082 -149.21099853515625,-17.052000045776367 -148.9810028076172,-19.291000366210938 C-148.35000610351562,-24.57200050354004 -147.71800231933594,-29.9689998626709 -146.9720001220703,-35.47999954223633 C-146.91400146484375,-35.99700164794922 -146.85699462890625,-36.513999938964844 -146.74200439453125,-37.029998779296875 C-146.2830047607422,-40.70500183105469 -145.76699829101562,-44.43600082397461 -145.24899291992188,-48.22600173950195 C-145.02000427246094,-49.89099884033203 -144.7899932861328,-51.555999755859375 -144.5030059814453,-53.22100067138672 C-144.21600341796875,-55.345001220703125 -143.8719940185547,-57.58300018310547 -143.52699279785156,-59.76499938964844 C-142.7239990234375,-65.10399627685547 -141.86199951171875,-70.5009994506836 -140.94400024414062,-75.95500183105469 C-140.82899475097656,-76.47200012207031 -140.77099609375,-76.98799896240234 -140.65699768066406,-77.50499725341797 C-140.02499389648438,-81.17900085449219 -139.3939971923828,-84.85299682617188 -138.7050018310547,-88.58499908447266 C-138.41799926757812,-90.2509994506836 -138.13099670410156,-91.9729995727539 -137.78700256347656,-93.69499969482422 C-137.38499450683594,-95.87699890136719 -136.98300170898438,-98.05899810791016 -136.5229949951172,-100.23899841308594 C-135.5469970703125,-105.63600158691406 -134.45599365234375,-111.03299713134766 -133.30799865722656,-116.43000030517578 C-133.25,-116.94599914550781 -133.13600158691406,-117.46299743652344 -133.02099609375,-117.97899627685547 C-131.8719940185547,-123.3759994506836 -130.72500610351562,-128.77200317382812 -129.5189971923828,-134.16900634765625 C-129.0019989013672,-136.3509979248047 -128.54299926757812,-138.5330047607422 -128.0260009765625,-140.71400451660156 C-126.76300048828125,-146.16799926757812 -125.44300079345703,-151.56500244140625 -124.06500244140625,-156.90499877929688 C-123.94999694824219,-157.42100524902344 -123.83499908447266,-157.93800354003906 -123.66300201416016,-158.4550018310547 C-123.31900024414062,-159.947998046875 -122.91699981689453,-161.4969940185547 -122.51499938964844,-162.99000549316406 C-121.99800109863281,-164.94200134277344 -121.48100280761719,-166.9510040283203 -120.96499633789062,-168.9029998779297 C-120.447998046875,-170.79800415039062 -119.93199920654297,-172.75 -119.41500091552734,-174.6439971923828 C-118.78399658203125,-176.8260040283203 -118.1520004272461,-179.0070037841797 -117.5199966430664,-181.18899536132812 C-115.97000122070312,-186.6999969482422 -114.36299896240234,-192.0970001220703 -112.63999938964844,-197.37899780273438 C-112.5260009765625,-197.89500427246094 -112.35299682617188,-198.41200256347656 -112.18099975585938,-198.9290008544922 C-110.4010009765625,-204.4969940185547 -108.56400299072266,-209.8939971923828 -106.66999816894531,-215.11900329589844 C-106.66999816894531,-215.11900329589844 -104.7750015258789,-220.28599548339844 -104.7750015258789,-220.28599548339844 C-104.60199737548828,-220.7449951171875 -104.43099975585938,-221.2050018310547 -104.25800323486328,-221.7209930419922 C-102.30599975585938,-226.88800048828125 -100.2969970703125,-231.8260040283203 -98.2300033569336,-236.5330047607422 C-98.05799865722656,-236.99200439453125 -97.88600158691406,-237.45199584960938 -97.65599822998047,-237.85299682617188 C-97.4260025024414,-238.3699951171875 -97.1969985961914,-238.88699340820312 -96.96700286865234,-239.4040069580078 C-94.38400268554688,-245.2030029296875 -91.74299621582031,-250.65699768066406 -89.04399871826172,-255.59300231933594 C-87.78099822998047,-257.8909912109375 -86.46099853515625,-260.0719909667969 -85.197998046875,-262.1960144042969 C-84.16400146484375,-263.9179992675781 -83.13099670410156,-265.5249938964844 -82.04000091552734,-267.07598876953125 C-81.52300262451172,-267.8800048828125 -81.00700378417969,-268.6830139160156 -80.48999786376953,-269.42999267578125 C-78.0790023803711,-272.7590026855469 -75.66699981689453,-275.7449951171875 -73.1989974975586,-278.3290100097656 C-72.68299865722656,-278.9020080566406 -72.2229995727539,-279.41900634765625 -71.70600128173828,-279.87799072265625 C-71.70600128173828,-279.87799072265625 -71.18900299072266,-280.3949890136719 -71.18900299072266,-280.3949890136719 C-69.46800231933594,-282.05999755859375 -67.11399841308594,-283.7820129394531 -64.30000305175781,-285.4469909667969 C-62.3489990234375,-286.7099914550781 -60.10900115966797,-287.9159851074219 -57.75600051879883,-289.12200927734375 C-53.10499954223633,-291.47601318359375 -47.82400131225586,-293.8299865722656 -42.196998596191406,-296.0679931640625 C-41.96799850463867,-296.1830139160156 -41.79499816894531,-296.2409973144531 -41.564998626708984,-296.3550109863281 C-41.04899978637695,-296.52801513671875 -40.53200149536133,-296.7569885253906 -40.01499938964844,-296.98699951171875 C-34.79100036621094,-298.9960021972656 -29.393999099731445,-300.8909912109375 -23.996999740600586,-302.6700134277344 C-23.940000534057617,-302.6700134277344 -23.882999420166016,-302.7279968261719 -23.826000213623047,-302.7279968261719 C-21.643999099731445,-303.4739990234375 -19.461999893188477,-304.16400146484375 -17.2810001373291,-304.85198974609375 C-11.597000122070312,-306.6319885253906 -6.085999965667725,-308.1820068359375 -1.090999960899353,-309.50299072265625 C-0.5740000009536743,-309.61700439453125 -0.05700000002980232,-309.73199462890625 0.46000000834465027,-309.9049987792969 C7.176000118255615,-311.5690002441406 12.916999816894531,-312.7179870605469 16.649999618530273,-313.06201171875 C17.51099967956543,-313.1759948730469 18.31399917602539,-313.2340087890625 18.945999145507812,-313.2340087890625 C20.323999404907227,-313.2340087890625 21.759000778198242,-313.1759948730469 23.194000244140625,-313.06201171875 C28.246000289916992,-312.7749938964844 33.70000076293945,-311.7409973144531 39.38399887084961,-310.1340026855469 C39.900001525878906,-310.0190124511719 40.41699981689453,-309.84698486328125 40.933998107910156,-309.67498779296875 C46.15800094604492,-308.125 51.61199951171875,-306.114990234375 57.124000549316406,-303.7619934082031 C57.928001403808594,-303.3599853515625 58.731998443603516,-303.0150146484375 59.53499984741211,-302.6700134277344 C60.91299819946289,-302.03900146484375 62.29100036621094,-301.4070129394531 63.66899871826172,-300.718994140625 C66.71199798583984,-299.22601318359375 69.75399780273438,-297.6759948730469 72.73999786376953,-296.0679931640625 C75.1510009765625,-294.74798583984375 77.50499725341797,-293.3699951171875 79.85800170898438,-291.99200439453125 C80.375,-291.7049865722656 80.89199829101562,-291.3599853515625 81.40899658203125,-291.0740051269531 C86.97799682617188,-287.68701171875 92.3740005493164,-284.1260070800781 97.5979995727539,-280.3380126953125 C97.8280029296875,-280.2229919433594 98,-280.0509948730469 98.2300033569336,-279.87799072265625 C98.91899871826172,-279.41900634765625 99.66600036621094,-278.8450012207031 100.3550033569336,-278.3290100097656 C101.67400360107422,-277.4100036621094 102.93800354003906,-276.4339904785156 104.20099639892578,-275.4580078125 C109.8270034790039,-271.0950012207031 115.0510025024414,-266.61700439453125 119.7020034790039,-262.1960144042969 C119.93099975585938,-262.02398681640625 120.16100311279297,-261.79400634765625 120.33300018310547,-261.62200927734375 C120.8499984741211,-261.1050109863281 121.36699676513672,-260.5880126953125 121.88300323486328,-260.1289978027344 C123.43299865722656,-258.5790100097656 124.9260025024414,-257.08599853515625 126.30400085449219,-255.59300231933594 C126.87799835205078,-254.96200561523438 127.4520034790039,-254.3300018310547 128.0260009765625,-253.69900512695312 C130.78199768066406,-250.65699768066406 133.7100067138672,-245.7760009765625 136.8679962158203,-239.4040069580078 C137.0970001220703,-238.88699340820312 137.38400268554688,-238.3699951171875 137.61399841308594,-237.85299682617188 C137.78599548339844,-237.50900268554688 137.95799255371094,-237.10699462890625 138.072998046875,-236.76300048828125 C140.197998046875,-232.3419952392578 142.3209991455078,-227.2899932861328 144.56100463867188,-221.7209930419922 C144.56100463867188,-221.66400146484375 144.6179962158203,-221.5489959716797 144.6750030517578,-221.4340057373047 C145.47900390625,-219.4250030517578 146.2830047607422,-217.30099487304688 147.08700561523438,-215.11900329589844 C148.98199462890625,-210.06700134277344 150.93299865722656,-204.61300659179688 152.88499450683594,-198.9290008544922 C153.05799865722656,-198.41200256347656 153.22999572753906,-197.89500427246094 153.40199279785156,-197.37899780273438 C155.18099975585938,-192.21200561523438 156.96099853515625,-186.81500244140625 158.74099731445312,-181.18899536132812 C159.42999267578125,-179.06399536132812 160.11900329589844,-176.88299560546875 160.80799865722656,-174.70199584960938 C160.80799865722656,-174.70199584960938 160.80799865722656,-174.6439971923828 160.80799865722656,-174.6439971923828 C161.3249969482422,-173.03700256347656 161.84100341796875,-171.48599243164062 162.35800170898438,-169.87899780273438 C163.50599670410156,-166.14700317382812 164.65499877929688,-162.30099487304688 165.80299377441406,-158.4550018310547 C165.97500610351562,-157.93800354003906 166.14700317382812,-157.42100524902344 166.26199340820312,-156.90499877929688 C167.8699951171875,-151.6219940185547 169.4770050048828,-146.2259979248047 171.0850067138672,-140.71400451660156 C171.71600341796875,-138.58999633789062 172.3470001220703,-136.3509979248047 172.97900390625,-134.16900634765625 C174.5290069580078,-128.8300018310547 176.02200317382812,-123.43399810791016 177.57200622558594,-117.97899627685547 C177.74400329589844,-117.46299743652344 177.85899353027344,-116.94599914550781 178.031005859375,-116.43000030517578 C178.2030029296875,-115.7979965209961 178.375,-115.10900115966797 178.54800415039062,-114.47699737548828 C179.8679962158203,-109.71299743652344 181.18899536132812,-105.00499725341797 182.50900268554688,-100.23899841308594 C183.14100646972656,-98.05899810791016 183.71400451660156,-95.87699890136719 184.3459930419922,-93.69499969482422 C184.5760040283203,-92.66200256347656 184.86300659179688,-91.68499755859375 185.14999389648438,-90.6520004272461 C186.3560028076172,-86.28900146484375 187.56199645996094,-81.86799621582031 188.7100067138672,-77.50499725341797 C188.8249969482422,-76.98799896240234 188.9969940185547,-76.47200012207031 189.11099243164062,-75.95500183105469 C190.60400390625,-70.55899810791016 192.0399932861328,-65.10399627685547 193.47500610351562,-59.76499938964844 C194.0489959716797,-57.58300018310547 194.6230010986328,-55.4010009765625 195.19700622558594,-53.22100067138672 C196.6320037841797,-47.70899963378906 198.06700134277344,-42.31100082397461 199.5030059814453,-37.029998779296875 C199.61700439453125,-36.513999938964844 199.7899932861328,-35.99700164794922 199.90499877929688,-35.47999954223633 C200.36399841308594,-33.70000076293945 200.822998046875,-31.92099952697754 201.28199768066406,-30.197999954223633 C201.7989959716797,-28.246999740600586 202.3159942626953,-26.29400062561035 202.83299255371094,-24.399999618530273 C203.29200744628906,-22.67799949645996 203.69400024414062,-20.954999923706055 204.1529998779297,-19.291000366210938 C204.72799682617188,-17.052000045776367 205.30099487304688,-14.869999885559082 205.87600708007812,-12.744999885559082 C207.3679962158203,-7.11899995803833 208.80299377441406,-1.7230000495910645 210.18099975585938,3.444000005722046 C210.29600524902344,3.9609999656677246 210.41099548339844,4.478000164031982 210.58399963378906,4.99399995803833 C212.0760040283203,10.734999656677246 213.51100158691406,16.132999420166016 214.88900756835938,21.184999465942383 C215.11900329589844,22.045000076293945 215.34800720214844,22.849000930786133 215.5780029296875,23.652999877929688 C215.9219970703125,24.974000930786133 216.26699829101562,26.29400062561035 216.61099243164062,27.729999542236328 C217.47300720214844,31.23200035095215 218.2760009765625,34.9630012512207 219.0229949951172,38.86600112915039 C219.36700439453125,40.53200149536133 219.6540069580078,42.19599914550781 219.9980010986328,43.91899871826172 C220.05599975585938,44.43600082397461 220.17100524902344,44.95199966430664 220.22799682617188,45.46900177001953 C221.08900451660156,50.637001037597656 221.89300537109375,56.03300094604492 222.58200073242188,61.659000396728516 C222.86900329589844,63.78300094604492 223.0989990234375,65.96499633789062 223.32899475097656,68.2040023803711 C223.9600067138672,73.42900085449219 224.4770050048828,78.82499694824219 224.87899780273438,84.3949966430664 C224.93600463867188,84.91000366210938 224.9929962158203,85.4280014038086 224.9929962158203,85.94400024414062 C225.22300720214844,88.81500244140625 225.4530029296875,91.68499755859375 225.625,94.66999816894531 C225.7969970703125,97.13899993896484 225.968994140625,99.60700225830078 226.08399963378906,102.13400268554688 C226.25599670410156,104.31500244140625 226.31399536132812,106.49700164794922 226.48599243164062,108.67900085449219 C226.71600341796875,114.01799774169922 226.88800048828125,119.41500091552734 227.0030059814453,124.86900329589844 C227.05999755859375,125.38600158691406 227.05999755859375,125.9020004272461 227.05999755859375,126.41899871826172 C227.23199462890625,131.75799560546875 227.3470001220703,137.21200561523438 227.40499877929688,142.60800170898438 C227.40499877929688,144.7899932861328 227.46200561523438,147.0290069580078 227.46200561523438,149.21099853515625z"></path></g><g opacity="1" transform="matrix(1,0,0,1,254.92799377441406,146.468994140625)"><path fill="rgb(0,107,94)" fill-opacity="1" d=" M-34.222999572753906,-61.75199890136719 C-49.362998962402344,-56.93899917602539 -73.97599792480469,-38.7869987487793 -75.78399658203125,-31.3439998626709 C-77.59200286865234,-23.899999618530273 -74.33699798583984,11.071000099182129 -70.36100006103516,14.414999961853027 C-66.38600158691406,17.760000228881836 -19.29199981689453,66.0790023803711 27.801000595092773,66.02899932861328 C32.26599884033203,66.02400207519531 38.54499816894531,23.450000762939453 40.402000427246094,20.174999237060547 C42.25899887084961,16.899999618530273 67.96700286865234,49.24300003051758 70.56900024414062,46.63600158691406 C73.1709976196289,44.02799987792969 77.59100341796875,3.26200008392334 75.3479995727539,-6.864999771118164 C73.1050033569336,-16.990999221801758 40.70399856567383,-46.35100173950195 26.555999755859375,-55.63800048828125 C12.406999588012695,-64.92400360107422 -20.607999801635742,-66.08000183105469 -34.222999572753906,-61.75199890136719z"></path></g><g opacity="1" transform="matrix(1,0,0,1,244.0330047607422,88.15399932861328)"><path fill="rgb(255,174,160)" fill-opacity="1" d=" M48.72100067138672,-77.64199829101562 C48.72100067138672,-77.64199829101562 58.702999114990234,15.734000205993652 58.702999114990234,15.734000205993652 C58.702999114990234,15.734000205993652 58.729000091552734,15.885000228881836 58.729000091552734,15.885000228881836 C58.729000091552734,15.885000228881836 60.13399887084961,29 60.13399887084961,29 C60.13399887084961,29 73.62799835205078,62.56700134277344 46.34700012207031,71.93599700927734 C-0.14399999380111694,87.90299987792969 -43.26300048828125,44.790000915527344 -47.70600128173828,38.332000732421875 C-49.98699951171875,35.02199935913086 -56.70600128173828,2.0290000438690186 -62.737998962402344,-29.354000091552734 C-68.49299621582031,-59.332000732421875 -73.62799835205078,-87.90399932861328 -73.62799835205078,-87.90399932861328 C-73.62799835205078,-87.90399932861328 -59.97200012207031,-86.74500274658203 -59.97200012207031,-86.74500274658203 C-59.97200012207031,-86.74500274658203 48.72100067138672,-77.64199829101562 48.72100067138672,-77.64199829101562z"></path></g><g opacity="1" transform="matrix(1,0,0,1,236.58299255371094,52.305999755859375)"><path fill="rgb(217,125,139)" fill-opacity="1" d=" M56.16999816894531,-41.79399871826172 C56.16999816894531,-41.79399871826172 66.15299987792969,51.582000732421875 66.15299987792969,51.582000732421875 C66.15299987792969,51.582000732421875 66.17900085449219,51.733001708984375 66.17900085449219,51.733001708984375 C34.72200012207031,52.055999755859375 3.2769999504089355,43.8120002746582 -24.55299949645996,28.315000534057617 C-35.69900131225586,22.075000762939453 -45.952999114990234,14.75 -55.28799819946289,6.493000030517578 C-61.042999267578125,-23.485000610351562 -66.17900085449219,-52.055999755859375 -66.17900085449219,-52.055999755859375 C-66.17900085449219,-52.055999755859375 -52.52199935913086,-50.89699935913086 -52.52199935913086,-50.89699935913086 C-52.52199935913086,-50.89699935913086 56.16999816894531,-41.79399871826172 56.16999816894531,-41.79399871826172z"></path></g></g><g transform="matrix(0.9986398816108704,0.052139222621917725,-0.052139222621917725,0.9986398816108704,331.2405700683594,711.2908325195312)" opacity="1" style="display: block;"><g opacity="1" transform="matrix(1,0,0,1,279.2669982910156,99.8290023803711)"><path fill="rgb(255,174,160)" fill-opacity="1" d=" M-112.98400115966797,-99.5790023803711 C-113.27100372314453,-97.45500183105469 -113.21399688720703,-96.13500213623047 -112.63999938964844,-95.79000091552734 C-111.72100067138672,-95.21600341796875 -105.9219970703125,-92.4020004272461 -96.79399871826172,-87.98200225830078 C-47.59299850463867,-64.27100372314453 98.97699737548828,4.9079999923706055 110.45899963378906,10.133000373840332 C124.18099975585938,16.2189998626709 165.28700256347656,28.10300064086914 191.40899658203125,33.097999572753906 C209.83700561523438,36.599998474121094 279.0169982910156,78.68199920654297 272.8169860839844,86.14600372314453 C266.67498779296875,93.5510025024414 230.33299255371094,81.5530014038086 203.9239959716797,83.96399688720703 C193.76199340820312,84.94000244140625 157.07699584960938,99.5790023803711 136.63900756835938,91.88600158691406 C125.0989990234375,87.46600341796875 99.26399993896484,68.52100372314453 95.7040023803711,69.38099670410156 C92.1449966430664,70.24199676513672 -119.47100067138672,53.13399887084961 -169.19000244140625,32.17900085449219 C-178.77699279785156,28.15999984741211 -188.4219970703125,23.222999572753906 -197.89500427246094,17.826000213623047 C-237.50799560546875,-5.080999851226807 -272.9309997558594,-37.28799819946289 -279.0169982910156,-53.305999755859375"></path></g></g><g transform="matrix(0.9997380375862122,0.022886628285050392,-0.022886628285050392,0.9997380375862122,318.8108215332031,396.3849182128906)" opacity="1" style="display: block;"><g opacity="1" transform="matrix(1,0,0,1,125.2239990234375,209.3979949951172)"><path fill="rgb(42,143,131)" fill-opacity="1" d=" M115.16699981689453,-105.9229965209961 C115.16699981689453,-100.41200256347656 115.10800170898438,-95.01499938964844 114.93599700927734,-89.73300170898438 C114.93599700927734,-89.21600341796875 114.93599700927734,-88.69999694824219 114.87799835205078,-88.18299865722656 C114.76399993896484,-82.61399841308594 114.47699737548828,-77.16000366210938 114.19000244140625,-71.99299621582031 C114.07499694824219,-69.75399780273438 113.95999908447266,-67.5719985961914 113.78800201416016,-65.4469985961914 C113.44300079345703,-59.650001525878906 112.98400115966797,-54.19499969482422 112.5250015258789,-49.257999420166016 C112.46700286865234,-48.74100112915039 112.46700286865234,-48.224998474121094 112.41000366210938,-47.70800018310547 C111.77799987792969,-41.334999084472656 111.14700317382812,-35.82400131225586 110.572998046875,-31.51799964904785 C110.22899627685547,-28.87700080871582 109.88400268554688,-26.69499969482422 109.59700012207031,-24.974000930786133 C109.53900146484375,-24.513999938964844 109.42400360107422,-24.11199951171875 109.36699676513672,-23.709999084472656 C108.73500061035156,-20.437999725341797 107.52999877929688,-15.213000297546387 105.80799865722656,-8.782999992370605 C105.69200134277344,-8.267000198364258 105.5790023803711,-7.75 105.46399688720703,-7.234000205993652 C104.66000366210938,-4.190999984741211 103.74099731445312,-0.8600000143051147 102.8219985961914,2.6410000324249268 C102.24800109863281,4.708000183105469 101.67400360107422,6.775000095367432 101.0999984741211,8.956999778747559 C100.46800231933594,11.079999923706055 99.8949966430664,13.26200008392334 99.26300048828125,15.50100040435791 C98.28700256347656,18.888999938964844 97.31099700927734,22.389999389648438 96.2770004272461,25.950000762939453 C95.76100158691406,27.844999313354492 95.18699645996094,29.73900032043457 94.61199951171875,31.69099998474121 C94.49800109863281,32.20800018310547 94.32599639892578,32.7239990234375 94.15399932861328,33.24100112915039 C92.60399627685547,38.638999938964844 90.99600219726562,44.09199905395508 89.44599914550781,49.430999755859375 C88.75700378417969,51.66999816894531 88.06700134277344,53.85100173950195 87.43599700927734,55.97600173950195 C85.71299743652344,61.60200119018555 84.04900360107422,67.05599975585938 82.44100189208984,72.16600036621094 C82.26899719238281,72.68199920654297 82.09700012207031,73.1989974975586 81.92400360107422,73.71600341796875 C81.29299926757812,75.7249984741211 80.71900177001953,77.6780014038086 80.08699798583984,79.51399993896484 C79.57099914550781,81.23699951171875 79.05400085449219,82.84500122070312 78.53800201416016,84.39399719238281 C77.90599822998047,86.34700012207031 77.2750015258789,88.18299865722656 76.70099639892578,89.90599822998047 C75.89700317382812,92.31700134277344 75.1500015258789,94.4990005493164 74.40399932861328,96.45099639892578 C72.50900268554688,101.90499877929688 71.01699829101562,105.46399688720703 70.2699966430664,106.38300323486328 C69.40899658203125,107.41600036621094 66.59600067138672,108.73600006103516 62.347999572753906,110.51599884033203 C60.854000091552734,111.20600128173828 59.13199996948242,111.89399719238281 57.29499816894531,112.63999938964844 C56.83599853515625,112.81199645996094 56.319000244140625,113.04299926757812 55.801998138427734,113.21499633789062 C55.055999755859375,113.55899810791016 54.19499969482422,113.84700012207031 53.39099884033203,114.19000244140625 C49.314998626708984,115.8550033569336 44.665000915527344,117.75 39.612998962402344,119.98899841308594 C39.09600067138672,120.16100311279297 38.57899856567383,120.39099884033203 38.0620002746582,120.62000274658203 C32.952999114990234,122.86000061035156 27.5,125.38600158691406 21.874000549316406,128.19900512695312 C20.496000289916992,128.88800048828125 19.059999465942383,129.63400268554688 17.624000549316406,130.38099670410156 C16.878000259399414,130.78199768066406 16.073999404907227,131.1840057373047 15.32800006866455,131.64300537109375 C12.227999687194824,133.30799865722656 9.069999694824219,135.08900451660156 5.855000019073486,136.92599487304688 C3.615999937057495,138.24600219726562 1.3769999742507935,139.62399291992188 -0.8619999885559082,141.0590057373047 C-1.378999948501587,141.4029998779297 -1.8949999809265137,141.7480010986328 -2.4110000133514404,142.09300231933594 C-7.636000156402588,145.47900390625 -12.803000450134277,149.1540069580078 -17.740999221801758,153.11599731445312 C-18.027999877929688,153.34500122070312 -18.315000534057617,153.57400512695312 -18.601999282836914,153.80499267578125 C-18.945999145507812,154.0919952392578 -19.290000915527344,154.37899780273438 -19.69099998474121,154.66600036621094 C-21.52899932861328,156.21600341796875 -23.367000579833984,157.822998046875 -25.145999908447266,159.48800659179688 C-29.107999801635742,162.99000549316406 -32.895999908447266,166.83599853515625 -36.340999603271484,170.85499572753906 C-38.12099838256836,172.8070068359375 -39.7859992980957,174.87399291992188 -41.33599853515625,176.9409942626953 C-41.50899887084961,177.11300659179688 -41.624000549316406,177.2270050048828 -41.680999755859375,177.39999389648438 C-42.14099884033203,177.91700744628906 -42.54199981689453,178.43299865722656 -42.887001037597656,178.9510040283203 C-46.27399826049805,183.54400634765625 -49.316001892089844,188.42300415039062 -51.84199905395508,193.59100341796875 C-52.1870002746582,194.10699462890625 -52.4739990234375,194.62399291992188 -52.702999114990234,195.13999938964844 C-54.8849983215332,199.5030059814453 -56.722999572753906,204.1529998779297 -58.21500015258789,208.9759979248047 C-58.27299880981445,209.1479949951172 -58.560001373291016,209.09100341796875 -59.07699966430664,208.86099243164062 C-60.224998474121094,208.40199279785156 -62.577999114990234,206.90899658203125 -65.6780014038086,204.61300659179688 C-68.89299774169922,202.25999450683594 -73.0270004272461,198.98699951171875 -77.447998046875,195.13999938964844 C-77.96499633789062,194.62399291992188 -78.53800201416016,194.10699462890625 -79.16899871826172,193.59100341796875 C-80.02999877929688,192.843994140625 -80.89299774169922,192.0399932861328 -81.81099700927734,191.1790008544922 C-82.3280029296875,190.72000122070312 -82.84500122070312,190.25999450683594 -83.36100006103516,189.68600463867188 C-87.37999725341797,185.9550018310547 -91.45600128173828,181.76400756835938 -95.302001953125,177.39999389648438 C-96.79399871826172,175.73500061035156 -98.2300033569336,174.07000732421875 -99.552001953125,172.34800720214844 C-99.9540023803711,171.83099365234375 -100.3550033569336,171.3719940185547 -100.75700378417969,170.85499572753906 C-102.70899963378906,168.38699340820312 -104.48699951171875,165.80299377441406 -106.1520004272461,163.27699279785156 C-107.98999786376953,160.406005859375 -109.5979995727539,157.53599548339844 -110.91899871826172,154.66600036621094 C-111.20600128173828,154.1490020751953 -111.43599700927734,153.6320037841797 -111.60700225830078,153.11599731445312 C-114.01899719238281,147.5469970703125 -115.16699981689453,142.14999389648438 -114.6500015258789,137.09800720214844 C-114.6500015258789,137.09800720214844 -114.6500015258789,136.92599487304688 -114.6500015258789,136.92599487304688 C-114.41999816894531,134.802001953125 -114.13400268554688,132.56199645996094 -113.78900146484375,130.38099670410156 C-113.10099792480469,125.15599822998047 -112.18199920654297,119.76000213623047 -111.03399658203125,114.19000244140625 C-111.03399658203125,113.67400360107422 -110.91899871826172,113.15699768066406 -110.74600219726562,112.63999938964844 C-109.71299743652344,107.35800170898438 -108.50700378417969,101.96199798583984 -107.0719985961914,96.45099639892578 C-106.84200286865234,95.24500274658203 -106.49700164794922,94.04000091552734 -106.1520004272461,92.7760009765625 C-105.9229965209961,91.8010025024414 -105.69300079345703,90.88200378417969 -105.40599822998047,89.90599822998047 C-104.02799987792969,84.56600189208984 -102.4800033569336,79.16999816894531 -100.81400299072266,73.71600341796875 C-100.69999694824219,73.1989974975586 -100.5270004272461,72.68199920654297 -100.2969970703125,72.16600036621094 C-100.1259994506836,71.30500030517578 -99.83799743652344,70.5009994506836 -99.552001953125,69.63899993896484 C-98.1729965209961,65.10399627685547 -96.68000030517578,60.569000244140625 -95.12999725341797,55.97600173950195 C-95.12999725341797,55.97600173950195 -92.89199829101562,49.430999755859375 -92.89199829101562,49.430999755859375 C-90.99700164794922,44.03499984741211 -89.04399871826172,38.638999938964844 -87.03500366210938,33.24100112915039 C-86.86299896240234,32.7239990234375 -86.63400268554688,32.20800018310547 -86.46199798583984,31.69099998474121 C-85.4280014038086,28.993000030517578 -84.3949966430664,26.295000076293945 -83.36100006103516,23.597000122070312 C-82.84500122070312,22.33300018310547 -82.3280029296875,21.01300048828125 -81.81099700927734,19.691999435424805 C-81.23699951171875,18.31399917602539 -80.72100067138672,16.878999710083008 -80.14600372314453,15.50100040435791 C-79.28500366210938,13.319999694824219 -78.36699676513672,11.138999938964844 -77.447998046875,8.956999778747559 C-75.26699829101562,3.503000020980835 -72.96900177001953,-1.8940000534057617 -70.6729965209961,-7.234000205993652 C-70.44300079345703,-7.75 -70.21299743652344,-8.267000198364258 -69.98300170898438,-8.782999992370605 C-68.5479965209961,-12.055999755859375 -67.11299896240234,-15.270999908447266 -65.6780014038086,-18.485000610351562 C-64.75900268554688,-20.66699981689453 -63.784000396728516,-22.849000930786133 -62.750999450683594,-24.974000930786133 C-61.775001525878906,-27.155000686645508 -60.79899978637695,-29.336999893188477 -59.76599884033203,-31.51799964904785 C-59.5359992980957,-32.034000396728516 -59.30699920654297,-32.551998138427734 -59.07699966430664,-33.069000244140625 C-56.722999572753906,-38.06399917602539 -54.42599868774414,-42.944000244140625 -52.073001861572266,-47.70800018310547 C-51.84299850463867,-48.224998474121094 -51.612998962402344,-48.74100112915039 -51.32600021362305,-49.257999420166016 C-48.62799835205078,-54.82699966430664 -45.92900085449219,-60.2239990234375 -43.28900146484375,-65.4469985961914 C-43.17399978637695,-65.6780014038086 -43.00199890136719,-65.96499633789062 -42.887001037597656,-66.19400024414062 C-42.369998931884766,-67.22799682617188 -41.85300064086914,-68.26100158691406 -41.33599853515625,-69.23699951171875 C-40.87699890136719,-70.15599822998047 -40.361000061035156,-71.0739974975586 -39.9010009765625,-71.99299621582031 C-36.972999572753906,-77.6760025024414 -34.10200119018555,-83.072998046875 -31.34600067138672,-88.18299865722656 C-31.000999450683594,-88.69999694824219 -30.77199935913086,-89.21600341796875 -30.486000061035156,-89.73300170898438 C-28.64900016784668,-93.06300354003906 -26.868999481201172,-96.22100067138672 -25.145999908447266,-99.26300048828125 C-23.82699966430664,-101.55999755859375 -22.562000274658203,-103.7979965209961 -21.298999786376953,-105.9229965209961 C-20.381000518798828,-107.52999877929688 -19.46299934387207,-109.02300262451172 -18.601999282836914,-110.51599884033203 C-18.200000762939453,-111.2040023803711 -17.79800033569336,-111.83599853515625 -17.395999908447266,-112.46700286865234 C-13.319999694824219,-119.18499755859375 -9.760000228881836,-124.69599914550781 -6.833000183105469,-128.65699768066406 C-6.431000232696533,-129.23199462890625 -6.085999965667725,-129.7480010986328 -5.742000102996826,-130.20700073242188 C-4.938000202178955,-131.24099731445312 -4.191999912261963,-132.15899658203125 -3.559999942779541,-132.906005859375 C-3.2160000801086426,-133.36500549316406 -2.812999963760376,-133.76699829101562 -2.4110000133514404,-134.2259979248047 C-1.8949999809265137,-134.8000030517578 -1.378999948501587,-135.4320068359375 -0.8619999885559082,-136.00599670410156 C2.065999984741211,-139.39300537109375 5.2820000648498535,-142.83799743652344 8.668999671936035,-146.3979949951172 C10.736000061035156,-148.57899475097656 12.916999816894531,-150.8179931640625 15.098999977111816,-152.99899291992188 C15.156000137329102,-153.0570068359375 15.270000457763672,-153.1719970703125 15.32800006866455,-153.22900390625 C17.45199966430664,-155.41099548339844 19.634000778198242,-157.53500366210938 21.874000549316406,-159.7169952392578 C25.145999908447266,-162.875 28.533000946044922,-166.03199768066406 31.92099952697754,-169.1320037841797 C32.494998931884766,-169.6490020751953 33.06800079345703,-170.10899353027344 33.641998291015625,-170.6820068359375 C35.077999114990234,-172.0030059814453 36.56999969482422,-173.322998046875 38.0620002746582,-174.64300537109375 C38.57899856567383,-175.04600524902344 39.09600067138672,-175.5050048828125 39.612998962402344,-176.02099609375 C44.03300094604492,-179.81100463867188 48.45399856567383,-183.48500061035156 52.702999114990234,-186.8719940185547 C53.736000061035156,-187.73399353027344 54.76900100708008,-188.53700256347656 55.801998138427734,-189.2830047607422 C57.696998596191406,-190.7760009765625 59.53499984741211,-192.1540069580078 61.31399917602539,-193.4739990234375 C61.65800094604492,-193.70399475097656 62.00299835205078,-193.99099731445312 62.347999572753906,-194.22000122070312 C68.31800079345703,-198.52699279785156 73.83000183105469,-202.08599853515625 78.53800201416016,-204.4969940185547 C79.05400085449219,-204.78399658203125 79.57099914550781,-205.0709991455078 80.08699798583984,-205.30099487304688 C86.34500122070312,-208.28700256347656 90.99600219726562,-209.1479949951172 93.177001953125,-206.96600341796875 C94.26799774169922,-205.875 95.3010025024414,-204.7270050048828 96.2770004272461,-203.46400451660156 C98.51699829101562,-200.59300231933594 100.46800231933594,-197.26300048828125 102.24800109863281,-193.4739990234375 C102.41999816894531,-193.07200622558594 102.59300231933594,-192.67100524902344 102.8219985961914,-192.2689971923828 C103.56800079345703,-190.5469970703125 104.25700378417969,-188.76699829101562 104.94599914550781,-186.8719940185547 C106.72599792480469,-181.93499755859375 108.2760009765625,-176.4810028076172 109.53900146484375,-170.6820068359375 C109.65399932861328,-170.16600036621094 109.76899719238281,-169.6490020751953 109.8270034790039,-169.1320037841797 C110.91699981689453,-163.96499633789062 111.77799987792969,-158.56900024414062 112.46700286865234,-152.99899291992188 C112.81199645996094,-150.8179931640625 113.04100036621094,-148.63600158691406 113.27100372314453,-146.3979949951172 C113.78800201416016,-141.11500549316406 114.24700164794922,-135.66200256347656 114.53399658203125,-130.20700073242188 C114.53399658203125,-129.6909942626953 114.59200286865234,-129.1739959716797 114.59200286865234,-128.65699768066406 C114.87799835205078,-123.26100158691406 115.05000305175781,-117.86399841308594 115.10800170898438,-112.46700286865234 C115.16600036621094,-110.28600311279297 115.16699981689453,-108.10399627685547 115.16699981689453,-105.9229965209961z"></path></g><g opacity="1" transform="matrix(1,0,0,1,212.8040008544922,249.95899963378906)"><path fill="rgb(0,107,94)" fill-opacity="1" d=" M17.35099983215332,-32.124000549316406 C13.286999702453613,-25.990999221801758 8.755999565124512,-19.363000869750977 4.640999794006348,-12.475000381469727 C10.090999603271484,-31.16200065612793 15.930000305175781,-49.71900177001953 22.781999588012695,-67.90699768066406 C23.180999755859375,-68.96499633789062 21.496999740600586,-69.41100311279297 21.09600067138672,-68.37200164794922 C4.247000217437744,-24.707000732421875 -12.961999893188477,18.666000366210938 -22.4950008392334,64.70500183105469 C-23.180999755859375,68.01799774169922 -18.35099983215332,69.41100311279297 -17.392000198364258,66.11199951171875 C-11.520999908447266,45.91600036621094 -6.093999862670898,25.518999099731445 -0.4090000092983246,5.197000026702881 C1.784000039100647,0.45100000500679016 3.760999917984009,-4.436999797821045 6.111000061035156,-9.036999702453613 C9.996999740600586,-16.645999908447266 14.373000144958496,-23.979000091552734 18.97800064086914,-31.17300033569336 C19.635000228881836,-32.20000076293945 18.01799964904785,-33.12900161743164 17.35099983215332,-32.124000549316406z"></path></g><g opacity="1" transform="matrix(1,0,0,1,228.4429931640625,88.22100067138672)"><path fill="rgb(0,107,94)" fill-opacity="1" d=" M-20.395000457763672,-82.0719985961914 C-21.06800079345703,-82.49199676513672 -21.655000686645508,-81.53800201416016 -21.02899932861328,-81.06300354003906 C6.465000152587891,-60.18899917602539 9.763999938964844,-12.185999870300293 10.531000137329102,2.111999988555908 C12.017000198364258,29.761999130249023 9.902000427246094,53.45000076293945 5.479000091552734,80.49299621582031 C5.254000186920166,81.86499786376953 7.396999835968018,82.49199676513672 7.771999835968018,81.08300018310547 C17.349000930786133,45.05400085449219 21.655000686645508,-55.80699920654297 -20.395000457763672,-82.0719985961914z"></path></g><g opacity="1" transform="matrix(1,0,0,1,108.47899627685547,350.3489990234375)"><path fill="rgb(0,107,94)" fill-opacity="1" d=" M-107.4800033569336,4.6620001792907715 C-108.22899627685547,14.772000312805176 -57.75,83.61100006103516 -37.630001068115234,76.90399932861328 C-29.018999099731445,74.03399658203125 -5.508999824523926,25.71299934387207 16.94300079345703,8.01200008392334 C39.395999908447266,-9.690999984741211 87.23600006103516,-30.540000915527344 92.02200317382812,-32.39400100708008 C96.80899810791016,-34.24700164794922 108.22899627685547,-78.06600189208984 104.46499633789062,-80.83899688720703 C100.7020034790039,-83.61199951171875 19.780000686645508,-76.10199737548828 -12.751999855041504,-61.07600021362305 C-45.28499984741211,-46.04999923706055 -106.52300262451172,-8.255000114440918 -107.4800033569336,4.6620001792907715z"></path></g></g><g transform="matrix(0.9761930108070374,0.2169034630060196,-0.2169034630060196,0.9761930108070374,518.3013305664062,25.174116134643555)" opacity="1" style="display: block;"><g opacity="1" transform="matrix(1,0,0,1,211.2209930419922,81.05500030517578)"><path fill="rgb(15,66,59)" fill-opacity="1" d=" M-27.34000015258789,-31.006000518798828 C-27.34000015258789,-31.006000518798828 15.774999618530273,48.48400115966797 15.774999618530273,48.48400115966797 C15.774999618530273,48.48400115966797 27.34000015258789,-48.48500061035156 -27.34000015258789,-31.006000518798828z"></path></g><g opacity="1" transform="matrix(1,0,0,1,139.0489959716797,155.16900634765625)"><path fill="rgb(255,174,160)" fill-opacity="1" d=" M-101.11399841308594,-59.180999755859375 C-112.68199920654297,-14.404000282287598 -79.03199768066406,87.29499816894531 -41.42100143432617,117.47799682617188 C-15.663999557495117,138.1490020751953 32.88199996948242,137.843994140625 65.73899841308594,117.69200134277344 C80.67400360107422,108.53099822998047 92.36499786376953,95.2699966430664 97.2040023803711,78.01499938964844 C112.68199920654297,22.79800033569336 70.50299835205078,-96.48400115966797 41.6150016784668,-111.5469970703125 C-9.395999908447266,-138.1490020751953 -86.96800231933594,-113.93599700927734 -101.11399841308594,-59.180999755859375z"></path></g><g opacity="1" transform="matrix(1,0,0,1,180.3300018310547,229.85499572753906)"><path fill="rgb(217,125,139)" fill-opacity="1" d=" M-6.591000080108643,-2.440000057220459 C-4.631999969482422,-1.187999963760376 -2.549999952316284,0.6629999876022339 -0.04399999976158142,0.35600000619888306 C2.365000009536743,0.06199999898672104 4.913000106811523,-1.5829999446868896 6.906000137329102,-2.875999927520752 C7.10099983215332,-3.003000020980835 7.367000102996826,-2.821000099182129 7.271999835968018,-2.5880000591278076 C6.052000045776367,0.3880000114440918 2.678999900817871,2.7950000762939453 -0.5849999785423279,2.9000000953674316 C-3.7730000019073486,3.003000020980835 -5.848999977111816,0.6620000004768372 -7.181000232696533,-1.996999979019165 C-7.368000030517578,-2.36899995803833 -6.876999855041504,-2.622999906539917 -6.591000080108643,-2.440000057220459z"></path></g><g opacity="1" transform="matrix(1,0,0,1,183.6719970703125,213.5)"><path fill="rgb(255,255,255)" fill-opacity="1" d=" M11.526000022888184,-5.781000137329102 C11.526000022888184,-5.781000137329102 8.317000389099121,9.244999885559082 -2.994999885559082,8.54699993133545 C-11.526000022888184,8.017999649047852 -10.319999694824219,-9.244999885559082 -10.319999694824219,-9.244999885559082 C-10.319999694824219,-9.244999885559082 1.7039999961853027,-3.1070001125335693 11.526000022888184,-5.781000137329102z"></path></g><g opacity="1" transform="matrix(1,0,0,1,192.24400329589844,168.43899536132812)"><path fill="rgb(217,125,139)" fill-opacity="1" d=" M-19.399999618530273,36.55799865722656 C-14.366999626159668,41.66299819946289 -8.104000091552734,43.72100067138672 -1.8109999895095825,43.632999420166016 C1.003000020980835,43.612998962402344 3.8610000610351562,43.112998962402344 6.591000080108643,42.27899932861328 C7.13700008392334,42.15299987792969 7.671000003814697,41.979000091552734 8.142999649047852,41.76599884033203 C8.626999855041504,41.60200119018555 9.060999870300293,41.45199966430664 9.583999633789062,41.22700119018555 C10.354000091552734,40.94599914550781 10.652999877929688,40.19900131225586 10.630000114440918,39.422000885009766 C10.630000114440918,39.422000885009766 10.619000434875488,39.37200164794922 10.619000434875488,39.37200164794922 C10.562999725341797,39.12300109863281 10.517000198364258,38.92599868774414 10.41100025177002,38.689998626708984 C10.41100025177002,38.689998626708984 10.39900016784668,38.63999938964844 10.39900016784668,38.63999938964844 C10.39900016784668,38.63999938964844 10.263999938964844,38.04399871826172 10.263999938964844,38.04399871826172 C9.3149995803833,32.784000396728516 7.14900016784668,24.933000564575195 7.14900016784668,24.933000564575195 C9.258999824523926,25.492000579833984 19.922000885009766,27.844999313354492 19.19700050354004,25.141000747680664 C13.128000259399414,2.7960000038146973 6.379000186920166,-22.05699920654297 -4.379000186920166,-43.01300048828125 C-4.698999881744385,-43.72200012207031 -5.804999828338623,-43.3120002746582 -5.585000038146973,-42.58000183105469 C-0.6010000109672546,-20.871000289916992 8.163999557495117,-0.18700000643730164 13.517999649047852,21.541000366210938 C10.16100025177002,21.006999969482422 4.63100004196167,19.875999450683594 1.906000018119812,20.503000259399414 C1.2070000171661377,20.871000289916992 6.36299991607666,35.599998474121094 6.599999904632568,37.99800109863281 C6.599999904632568,37.99800109863281 6.623000144958496,38.097999572753906 6.60699987411499,38.257999420166016 C-1.9490000009536743,41.2140007019043 -9.128999710083008,39.93899917602539 -18.89299964904785,35.814998626708984 C-19.479999542236328,35.53300094604492 -19.922000885009766,36.10300064086914 -19.399999618530273,36.55799865722656z"></path></g><g opacity="1" transform="matrix(1,0,0,1,108.26899719238281,101.24400329589844)"><path fill="rgb(15,66,59)" fill-opacity="1" d=" M-42.87699890136719,98.87899780273438 C-17.66200065612793,97.06900024414062 -31.283000946044922,47.845001220703125 -31.283000946044922,47.845001220703125 C-31.283000946044922,47.845001220703125 7.40500020980835,44.06399917602539 -1.8550000190734863,-15.01200008392334 C-1.8550000190734863,-15.01200008392334 47.57600021362305,-4.502999782562256 77.7979965209961,-20.729000091552734 C108.01899719238281,-36.95399856567383 100.73899841308594,-93.66300201416016 91.63200378417969,-96.0199966430664 C82.5260009765625,-98.37899780273438 62.6619987487793,-78.88099670410156 62.6619987487793,-78.88099670410156 C62.6619987487793,-78.88099670410156 65.26899719238281,-100.99400329589844 53.55799865722656,-96.3010025024414 C41.84600067138672,-91.60600280761719 34.45899963378906,-79.86900329589844 34.45899963378906,-79.86900329589844 C34.45899963378906,-79.86900329589844 -60.95500183105469,-70.81800079345703 -77.66600036621094,-48.97999954223633 C-90.3759994506836,-32.369998931884766 -84.87100219726562,-10.5600004196167 -84.87100219726562,-10.5600004196167 C-84.87100219726562,-10.5600004196167 -108.01899719238281,2.6480000019073486 -104.5510025024414,22.982999801635742 C-101.08399963378906,43.316001892089844 -72.34500122070312,100.99400329589844 -42.87699890136719,98.87899780273438z"></path></g><g opacity="1" transform="matrix(1,0,0,1,94.40299987792969,114.28199768066406)"><path fill="rgb(15,66,59)" fill-opacity="1" d=" M10.196000099182129,-38.624000549316406 C9.973999977111816,-39.08000183105469 9.25100040435791,-38.854000091552734 9.444000244140625,-38.35200119018555 C21.92300033569336,-5.900000095367432 17.750999450683594,33.71099853515625 -23.562000274658203,36.55799865722656 C-24.763999938964844,36.63999938964844 -24.577999114990234,38.37099838256836 -23.42799949645996,38.41899871826172 C-7.757999897003174,39.08000183105469 7.11299991607666,30.64299964904785 14.793999671936035,16.632999420166016 C24.763999938964844,-1.5499999523162842 18.663999557495117,-21.27199935913086 10.196000099182129,-38.624000549316406z"></path></g><g opacity="1" transform="matrix(1,0,0,1,163.63999938964844,53.61600112915039)"><path fill="rgb(15,66,59)" fill-opacity="1" d=" M36.832000732421875,-46.15800094604492 C36.67100143432617,-46.22800064086914 36.49100112915039,-45.99100112915039 36.65299987792969,-45.87200164794922 C46.770999908447266,-38.45800018310547 46.62200164794922,-16.773000717163086 45.48099899291992,-5.36899995803833 C44.064998626708984,8.805000305175781 36.757999420166016,21.551000595092773 24.8439998626709,28.8439998626709 C3.9769999980926514,41.617000579833984 -25.277000427246094,37.099998474121094 -47.91400146484375,32.073001861572266 C-49.375,31.749000549316406 -48.654998779296875,33.32600021362305 -47.231998443603516,33.71900177001953 C-20.367000579833984,41.132999420166016 21.968000411987305,46.22700119018555 39.95100021362305,18.965999603271484 C47.15599822998047,8.045999526977539 49.375999450683594,-6.192999839782715 48.5,-19.150999069213867 C47.89500045776367,-28.11199951171875 45.99800109863281,-42.152000427246094 36.832000732421875,-46.15800094604492z"></path></g><g opacity="1" transform="matrix(1,0,0,1,49.66400146484375,210.2429962158203)"><path fill="rgb(255,174,160)" fill-opacity="1" d=" M24.413000106811523,-7.145999908447266 C24.413000106811523,-7.145999908447266 -3.1589999198913574,-39.895999908447266 -18.23200035095215,-29.759000778198242 C-33.30500030517578,-19.621999740600586 -10.383999824523926,29.381000518798828 8.85200023651123,34.63800048828125 C28.08799934387207,39.895999908447266 33.30500030517578,22.184999465942383 33.30500030517578,22.184999465942383 C33.30500030517578,22.184999465942383 24.413000106811523,-7.145999908447266 24.413000106811523,-7.145999908447266z"></path></g><g opacity="1" transform="matrix(1,0,0,1,55.64500045776367,215.00599670410156)"><path fill="rgb(217,125,139)" fill-opacity="1" d=" M-17.29199981689453,-20.63800048828125 C-17.59600067138672,-20.638999938964844 -17.614999771118164,-20.21500015258789 -17.347000122070312,-20.132999420166016 C-3.819999933242798,-16.017000198364258 4.138000011444092,-4.531000137329102 10.07699966430664,7.585999965667725 C5.761000156402588,3.1029999256134033 0.23899999260902405,0.9319999814033508 -5.815999984741211,6.132999897003174 C-6.135000228881836,6.40500020980835 -5.76200008392334,6.909999847412109 -5.400000095367432,6.798999786376953 C-0.15600000321865082,5.173999786376953 3.7829999923706055,5.754000186920166 7.7789998054504395,9.711000442504883 C10.609999656677246,12.515000343322754 12.70199966430664,16.19099998474121 14.847999572753906,19.527999877929688 C15.562999725341797,20.638999938964844 17.614999771118164,19.825000762939453 17.049999237060547,18.520999908447266 C17.007999420166016,18.426000595092773 16.95800018310547,18.326000213623047 16.916000366210938,18.229000091552734 C15.75,1.5579999685287476 0.7250000238418579,-20.569000244140625 -17.29199981689453,-20.63800048828125z"></path></g></g><g transform="matrix(0.9761930108070374,0.2169034630060196,-0.2169034630060196,0.9761930108070374,624.5213012695312,195.3366241455078)" opacity="1" style="display: block;"><g opacity="1" transform="matrix(1,0,0,1,19.667999267578125,31.215999603271484)"><path fill="rgb(15,66,59)" fill-opacity="1" d=" M-0.6110000014305115,-9.668999671936035 C-0.7260000109672546,-9.913000106811523 -1.0579999685287476,-9.220000267028809 -0.9800000190734863,-8.946000099182129 C0.9150000214576721,-2.263000011444092 1.9579999446868896,5.706999778747559 -3.5759999752044678,9.46399974822998 C-3.746999979019165,9.579999923706055 -3.6440000534057617,9.913000106811523 -3.4260001182556152,9.826000213623047 C3.747999906539917,6.923999786376953 2.255000114440918,-3.6440000534057617 -0.6110000014305115,-9.668999671936035z"></path></g><g opacity="1" transform="matrix(1,0,0,1,12.682000160217285,27.13599967956543)"><path fill="rgb(15,66,59)" fill-opacity="1" d=" M-1.3940000534057617,-11.121999740600586 C-12.432000160217285,-9.241000175476074 -7.859000205993652,12.696999549865723 2.367000102996826,10.95300006866455 C12.432000160217285,9.23799991607666 7.857999801635742,-12.697999954223633 -1.3940000534057617,-11.121999740600586z"></path></g><g opacity="1" transform="matrix(1,0,0,1,70.51200103759766,20.003000259399414)"><path fill="rgb(15,66,59)" fill-opacity="1" d=" M-5.624000072479248,-8.282999992370605 C-5.626999855041504,-8.553000450134277 -5.0269999504089355,-8.072999954223633 -4.9770002365112305,-7.791999816894531 C-3.7760000228881836,-0.9520000219345093 -1.2480000257492065,6.679999828338623 5.369999885559082,7.65500020980835 C5.576000213623047,7.684999942779541 5.626999855041504,8.031000137329102 5.39300012588501,8.045999526977539 C-2.3299999237060547,8.553000450134277 -5.584000110626221,-1.6109999418258667 -5.624000072479248,-8.282999992370605z"></path></g><g opacity="1" transform="matrix(1,0,0,1,73.05799865722656,13.977999687194824)"><path fill="rgb(15,66,59)" fill-opacity="1" d=" M-3.5820000171661377,-10.619999885559082 C7.173999786376953,-13.727999687194824 12.600000381469727,8.013999938964844 2.634999990463257,10.894000053405762 C-7.172999858856201,13.727999687194824 -12.598999977111816,-8.015000343322754 -3.5820000171661377,-10.619999885559082z"></path></g></g><g transform="matrix(0.9761930108070374,0.2169034630060196,-0.2169034630060196,0.9761930108070374,621.3204956054688,171.44772338867188)" opacity="1" style="display: block;"><g opacity="1" transform="matrix(1,0,0,1,12.456999778747559,22.010000228881836)"><path fill="rgb(15,66,59)" fill-opacity="1" d=" M-3.5820000171661377,8.512999534606934 C-0.75,7.138999938964844 1.63100004196167,5.3979997634887695 4.289999961853027,3.75 C7.290999889373779,1.8880000114440918 9.871999740600586,0.7160000205039978 11.392000198364258,-2.640000104904175 C12.206999778747559,-4.440000057220459 11.14799976348877,-7.14300012588501 9.475000381469727,-8.098999977111816 C5.576000213623047,-10.326000213623047 1.3370000123977661,-8.961000442504883 -2.367000102996826,-6.868000030517578 C-6.383999824523926,-4.5970001220703125 -8.902000427246094,-1.819000005722046 -10.581000328063965,2.4719998836517334 C-12.206999778747559,6.63100004196167 -7.315999984741211,10.326000213623047 -3.5820000171661377,8.512999534606934z"></path></g><g opacity="1" transform="matrix(1,0,0,1,77.13300323486328,6.833000183105469)"><path fill="rgb(15,66,59)" fill-opacity="1" d=" M6.859000205993652,6.445000171661377 C3.7139999866485596,6.583000183105469 0.7919999957084656,6.186999797821045 -2.3310000896453857,6.000999927520752 C-5.855999946594238,5.793000221252441 -8.6850004196167,5.988999843597412 -11.619000434875488,3.760999917984009 C-13.194000244140625,2.566999912261963 -13.54800033569336,-0.3149999976158142 -12.531000137329102,-1.9529999494552612 C-10.163000106811523,-5.767000198364258 -5.781000137329102,-6.583000183105469 -1.5290000438690186,-6.504000186920166 C3.0859999656677246,-6.419000148773193 6.619999885559082,-5.172999858856201 10.137999534606934,-2.1989998817443848 C13.54699993133545,0.6850000023841858 11.005999565124512,6.26200008392334 6.859000205993652,6.445000171661377z"></path></g></g><g transform="matrix(0.6454636454582214,0.7637909650802612,-0.7637909650802612,0.6454636454582214,817.5313720703125,803.8133544921875)" opacity="1" style="display: block;"><g opacity="1" transform="matrix(1,0,0,1,85.2770004272461,85.91100311279297)"><path fill="rgb(236,76,48)" fill-opacity="1" d=" M20.18600082397461,-68.29399871826172 C78.94599914550781,-50.93000030517578 72.05500030517578,4.1570000648498535 67.39700317382812,19.917999267578125 C62.7400016784668,35.678001403808594 38.582000732421875,85.66100311279297 -20.17799949645996,68.2959976196289 C-78.94599914550781,50.93000030517578 -66.0459976196289,-8.093000411987305 -62.939998626708984,-18.600000381469727 C-59.448001861572266,-30.420000076293945 -38.582000732421875,-85.66100311279297 20.18600082397461,-68.29399871826172z"></path></g><g opacity="1" transform="matrix(1,0,0,1,32.01599884033203,92.90599822998047)"><path fill="rgb(0,107,94)" fill-opacity="1" d=" M-1.6360000371932983,-20.492000579833984 C-1.6360000371932983,-20.492000579833984 20.44499969482422,-18.309999465942383 7.671999931335449,20.492000579833984 C7.671999931335449,20.492000579833984 -20.444000244140625,-5.354000091552734 -1.6360000371932983,-20.492000579833984z"></path></g><g opacity="1" transform="matrix(1,0,0,1,24.368000030517578,78.59600067138672)"><path fill="rgb(0,107,94)" fill-opacity="1" d=" M15.217000007629395,-2.555000066757202 C15.217000007629395,-2.555000066757202 16.59600067138672,15.607999801635742 -16.594999313354492,10.800999641418457 C-16.594999313354492,10.800999641418457 0.3019999861717224,-15.607999801635742 15.217000007629395,-2.555000066757202z"></path></g><g opacity="1" transform="matrix(1,0,0,1,33.125,57.409000396728516)"><path fill="rgb(0,107,94)" fill-opacity="1" d=" M0.5820000171661377,17.233999252319336 C0.5820000171661377,17.233999252319336 17.593000411987305,10.718999862670898 -0.9359999895095825,-17.233999252319336 C-0.9359999895095825,-17.233999252319336 -17.591999053955078,9.32699966430664 0.5820000171661377,17.233999252319336z"></path></g><g opacity="1" transform="matrix(1,0,0,1,48.970001220703125,76.96499633789062)"><path fill="rgb(0,107,94)" fill-opacity="1" d=" M-19.59600067138672,-3.4800000190734863 C-19.59600067138672,-3.4800000190734863 -5.454999923706055,-20.57699966430664 19.59600067138672,11.692999839782715 C19.59600067138672,11.692999839782715 -17.54599952697754,20.57699966430664 -19.59600067138672,-3.4800000190734863z"></path></g><g opacity="1" transform="matrix(1,0,0,1,46.29499816894531,67.46199798583984)"><path fill="rgb(0,107,94)" fill-opacity="1" d=" M-13.762999534606934,4.203999996185303 C-13.762999534606934,4.203999996185303 -20.889999389648438,-20.132999420166016 20.888999938964844,-17.37299919128418 C20.888999938964844,-17.37299919128418 8.279999732971191,20.132999420166016 -13.762999534606934,4.203999996185303z"></path></g><g opacity="1" transform="matrix(1,0,0,1,21.094999313354492,63.487998962402344)"><path fill="rgb(0,107,94)" fill-opacity="1" d=" M16.599000930786133,12.229999542236328 C16.599000930786133,12.229999542236328 -5.322000026702881,15.559000015258789 -20.844999313354492,-2.572000026702881 C-20.844999313354492,-2.572000026702881 -20.724000930786133,-12.786999702453613 -9.991999626159668,-15.559000015258789 C-9.991999626159668,-15.559000015258789 1.8769999742507935,5.118000030517578 20.844999313354492,6.377999782562256 C20.844999313354492,6.377999782562256 17.974000930786133,11.272000312805176 17.974000930786133,11.272000312805176"></path></g></g><g transform="matrix(0.8863548040390015,0.4630066156387329,-0.4630066156387329,0.8863548040390015,923.3908081054688,807.007568359375)" opacity="1" style="display: block;"><g opacity="1" transform="matrix(1,0,0,1,86.31500244140625,85.00700378417969)"><path fill="rgb(236,76,48)" fill-opacity="1" d=" M68.07499694824219,20.910999298095703 C50.0880012512207,79.48300170898438 -4.921999931335449,72.00800323486328 -20.631999969482422,67.18199920654297 C-36.34199905395508,62.358001708984375 -86.06500244140625,37.67100143432617 -68.0780029296875,-20.902000427246094 C-50.0880012512207,-79.48300170898438 8.793999671936035,-65.95500183105469 19.267000198364258,-62.73899841308594 C31.049999237060547,-59.119998931884766 86.06500244140625,-37.66999816894531 68.07499694824219,20.910999298095703z"></path></g><g opacity="1" transform="matrix(1,0,0,1,79.85199737548828,31.799999237060547)"><path fill="rgb(0,107,94)" fill-opacity="1" d=" M20.541000366210938,-1.5449999570846558 C20.541000366210938,-1.5449999570846558 18.125,20.511999130249023 -20.541000366210938,7.327000141143799 C-20.541000366210938,7.327000141143799 5.603000164031982,-20.51300048828125 20.541000366210938,-1.5449999570846558z"></path></g><g opacity="1" transform="matrix(1,0,0,1,94.18599700927734,24.038999557495117)"><path fill="rgb(0,107,94)" fill-opacity="1" d=" M2.4830000400543213,15.383000373840332 C2.4830000400543213,15.383000373840332 -15.692999839782715,16.569000244140625 -10.53499984741211,-16.569000244140625 C-10.53499984741211,-16.569000244140625 15.694000244140625,0.6069999933242798 2.4830000400543213,15.383000373840332z"></path></g><g opacity="1" transform="matrix(1,0,0,1,115.37000274658203,33.053001403808594)"><path fill="rgb(0,107,94)" fill-opacity="1" d=" M-17.240999221801758,0.5059999823570251 C-17.240999221801758,0.5059999823570251 -10.907999992370605,17.583999633789062 17.240999221801758,-0.6460000276565552 C17.240999221801758,-0.6460000276565552 -9.140999794006348,-17.583999633789062 -17.240999221801758,0.5059999823570251z"></path></g><g opacity="1" transform="matrix(1,0,0,1,95.76699829101562,48.75299835205078)"><path fill="rgb(0,107,94)" fill-opacity="1" d=" M3.565000057220459,-19.514999389648438 C3.565000057220459,-19.514999389648438 20.511999130249023,-5.192999839782715 -12.020999908447266,19.514999389648438 C-12.020999908447266,19.514999389648438 -20.511999130249023,-17.719999313354492 3.565000057220459,-19.514999389648438z"></path></g><g opacity="1" transform="matrix(1,0,0,1,105.24299621582031,46.422000885009766)"><path fill="rgb(0,107,94)" fill-opacity="1" d=" M-4.124000072479248,-14.006999969482422 C-4.124000072479248,-14.006999969482422 20.285999298095703,-20.87299919128418 17.08300018310547,20.874000549316406 C17.08300018310547,20.874000549316406 -20.285999298095703,7.866000175476074 -4.124000072479248,-14.006999969482422z"></path></g><g opacity="1" transform="matrix(1,0,0,1,109.4990005493164,21.047000885009766)"><path fill="rgb(0,107,94)" fill-opacity="1" d=" M-12.487000465393066,16.488000869750977 C-12.487000465393066,16.488000869750977 -15.583000183105469,-5.4679999351501465 2.7119998931884766,-20.797000885009766 C2.7119998931884766,-20.797000885009766 12.925000190734863,-20.566999435424805 15.583000183105469,-9.807000160217285 C15.583000183105469,-9.807000160217285 -5.218999862670898,1.843000054359436 -6.681000232696533,20.797000885009766 C-6.681000232696533,20.797000885009766 -11.543999671936035,17.874000549316406 -11.543999671936035,17.874000549316406"></path></g></g><g transform="matrix(1,0,0,1,368.5009765625,824.885009765625)" opacity="1" style="display: block;"><g opacity="1" transform="matrix(1,0,0,1,880.1719970703125,153.8419952392578)"><path stroke-linecap="butt" stroke-linejoin="miter" fill-opacity="0" stroke-miterlimit="10" stroke="rgb(15,66,59)" stroke-opacity="1" stroke-width="2" d=" M-173.17999267578125,16.864999771118164 C-173.17999267578125,16.864999771118164 -154.06199645996094,-16.864999771118164 -154.06199645996094,-16.864999771118164 C-154.06199645996094,-16.864999771118164 154.06199645996094,-16.864999771118164 154.06199645996094,-16.864999771118164 C154.06199645996094,-16.864999771118164 173.17999267578125,16.864999771118164 173.17999267578125,16.864999771118164"></path></g><g opacity="1" transform="matrix(1,0,0,1,880.1719970703125,153.8419952392578)"><path stroke-linecap="butt" stroke-linejoin="miter" fill-opacity="0" stroke-miterlimit="10" stroke="rgb(15,66,59)" stroke-opacity="1" stroke-width="2" d=" M-118.31099700927734,16.864999771118164 C-118.31099700927734,16.864999771118164 -105.25,-16.864999771118164 -105.25,-16.864999771118164 C-105.25,-16.864999771118164 105.2509994506836,-16.864999771118164 105.2509994506836,-16.864999771118164 C105.2509994506836,-16.864999771118164 118.31099700927734,16.864999771118164 118.31099700927734,16.864999771118164"></path></g><g opacity="1" transform="matrix(1,0,0,1,554.2650146484375,182.906005859375)"><path fill="rgb(220,144,104)" fill-opacity="1" d=" M554.0150146484375,17.94099998474121 C554.0150146484375,17.94099998474121 -554.0150146484375,17.94099998474121 -554.0150146484375,17.94099998474121 C-554.0150146484375,17.94099998474121 -554.0150146484375,-17.940000534057617 -554.0150146484375,-17.940000534057617 C-554.0150146484375,-17.940000534057617 554.0150146484375,-17.940000534057617 554.0150146484375,-17.940000534057617 C554.0150146484375,-17.940000534057617 554.0150146484375,17.94099998474121 554.0150146484375,17.94099998474121z"></path></g><g opacity="1" transform="matrix(1,0,0,1,354.510986328125,107.73400115966797)"><path fill="rgb(167,185,161)" fill-opacity="1" d=" M38.75199890136719,57.231998443603516 C38.75199890136719,57.231998443603516 -38.75199890136719,57.231998443603516 -38.75199890136719,57.231998443603516 C-38.75199890136719,57.231998443603516 -38.75199890136719,-57.231998443603516 -38.75199890136719,-57.231998443603516 C-38.75199890136719,-57.231998443603516 38.75199890136719,-57.231998443603516 38.75199890136719,-57.231998443603516 C38.75199890136719,-57.231998443603516 38.75199890136719,57.231998443603516 38.75199890136719,57.231998443603516z"></path></g><g opacity="1" transform="matrix(1,0,0,1,354.510986328125,47.25299835205078)"><path fill="rgb(236,76,48)" fill-opacity="1" d=" M47.46699905395508,11.381999969482422 C47.46699905395508,11.381999969482422 -47.46699905395508,11.381999969482422 -47.46699905395508,11.381999969482422 C-47.46699905395508,11.381999969482422 -47.46699905395508,-11.381999969482422 -47.46699905395508,-11.381999969482422 C-47.46699905395508,-11.381999969482422 47.46699905395508,-11.381999969482422 47.46699905395508,-11.381999969482422 C47.46699905395508,-11.381999969482422 47.46699905395508,11.381999969482422 47.46699905395508,11.381999969482422z"></path></g><g opacity="1" transform="matrix(1,0,0,1,189.28199768066406,82.60800170898438)"><path fill="rgb(244,228,213)" fill-opacity="1" d=" M119.71499633789062,-82.35800170898438 C119.71499633789062,-82.35800170898438 98.96499633789062,82.35800170898438 71.8290023803711,82.35800170898438 C71.8290023803711,82.35800170898438 0,82.35800170898438 0,82.35800170898438 C0,82.35800170898438 -71.8290023803711,82.35800170898438 -71.8290023803711,82.35800170898438 C-98.96399688720703,82.35800170898438 -119.71499633789062,-82.35800170898438 -119.71499633789062,-82.35800170898438 C-119.71499633789062,-82.35800170898438 119.71499633789062,-82.35800170898438 119.71499633789062,-82.35800170898438z"></path></g></g></g></svg>